/* XPM */
static char *result[] = {
/* columns rows colors chars-per-pixel */
"52 52 256 2 ",
"   c black",
".  c #010101",
"X  c #020202",
"o  c gray1",
"O  c #040404",
"+  c gray2",
"@  c #060606",
"#  c #070707",
"$  c gray3",
"%  c #090909",
"&  c gray4",
"*  c #0B0B0B",
"=  c #0C0C0C",
"-  c gray5",
";  c #0E0E0E",
":  c gray6",
">  c #101010",
",  c #111111",
"<  c gray7",
"1  c #131313",
"2  c gray8",
"3  c #151515",
"4  c #161616",
"5  c gray9",
"6  c #181818",
"7  c #191919",
"8  c gray10",
"9  c #1B1B1B",
"0  c gray11",
"q  c #1D1D1D",
"w  c #1E1E1E",
"e  c gray12",
"r  c #202020",
"t  c gray13",
"y  c #222222",
"u  c #232323",
"i  c gray14",
"p  c #252525",
"a  c gray15",
"s  c #272727",
"d  c #282828",
"f  c gray16",
"g  c #2A2A2A",
"h  c gray17",
"j  c #2C2C2C",
"k  c #2D2D2D",
"l  c gray18",
"z  c #2F2F2F",
"x  c gray19",
"c  c #313131",
"v  c #323232",
"b  c gray20",
"n  c #343434",
"m  c #353535",
"M  c gray21",
"N  c #373737",
"B  c gray22",
"V  c #393939",
"C  c #3A3A3A",
"Z  c gray23",
"A  c #3C3C3C",
"S  c gray24",
"D  c #3E3E3E",
"F  c #3F3F3F",
"G  c gray25",
"H  c #414141",
"J  c gray26",
"K  c #434343",
"L  c #444444",
"P  c gray27",
"I  c #464646",
"U  c gray28",
"Y  c #484848",
"T  c #494949",
"R  c gray29",
"E  c #4B4B4B",
"W  c #4C4C4C",
"Q  c gray30",
"!  c #4E4E4E",
"~  c gray31",
"^  c #505050",
"/  c #515151",
"(  c gray32",
")  c #535353",
"_  c gray33",
"`  c #555555",
"'  c #565656",
"]  c gray34",
"[  c #585858",
"{  c gray35",
"}  c #5A5A5A",
"|  c #5B5B5B",
" . c gray36",
".. c #5D5D5D",
"X. c gray37",
"o. c #5F5F5F",
"O. c #606060",
"+. c gray38",
"@. c #626262",
"#. c gray39",
"$. c #646464",
"%. c #656565",
"&. c gray40",
"*. c #676767",
"=. c #686868",
"-. c DimGray",
";. c #6A6A6A",
":. c gray42",
">. c #6C6C6C",
",. c #6D6D6D",
"<. c gray43",
"1. c #6F6F6F",
"2. c gray44",
"3. c #717171",
"4. c #727272",
"5. c gray45",
"6. c #747474",
"7. c gray46",
"8. c #767676",
"9. c #777777",
"0. c gray47",
"q. c #797979",
"w. c gray48",
"e. c #7B7B7B",
"r. c #7C7C7C",
"t. c gray49",
"y. c #7E7E7E",
"u. c gray50",
"i. c #808080",
"p. c #818181",
"a. c gray51",
"s. c #838383",
"d. c #848484",
"f. c gray52",
"g. c #868686",
"h. c gray53",
"j. c #888888",
"k. c #898989",
"l. c gray54",
"z. c #8B8B8B",
"x. c gray55",
"c. c #8D8D8D",
"v. c #8E8E8E",
"b. c gray56",
"n. c #909090",
"m. c gray57",
"M. c #929292",
"N. c #939393",
"B. c gray58",
"V. c #959595",
"C. c gray59",
"Z. c #979797",
"A. c #989898",
"S. c gray60",
"D. c #9A9A9A",
"F. c #9B9B9B",
"G. c gray61",
"H. c #9D9D9D",
"J. c gray62",
"K. c #9F9F9F",
"L. c #A0A0A0",
"P. c gray63",
"I. c #A2A2A2",
"U. c gray64",
"Y. c #A4A4A4",
"T. c #A5A5A5",
"R. c gray65",
"E. c #A7A7A7",
"W. c gray66",
"Q. c #A9A9A9",
"!. c #AAAAAA",
"~. c gray67",
"^. c #ACACAC",
"/. c gray68",
"(. c #AEAEAE",
"). c #AFAFAF",
"_. c gray69",
"`. c #B1B1B1",
"'. c #B2B2B2",
"]. c gray70",
"[. c #B4B4B4",
"{. c gray71",
"}. c #B6B6B6",
"|. c #B7B7B7",
" X c gray72",
".X c #B9B9B9",
"XX c gray73",
"oX c #BBBBBB",
"OX c #BCBCBC",
"+X c gray74",
"@X c gray",
"#X c gray75",
"$X c #C0C0C0",
"%X c #C1C1C1",
"&X c gray76",
"*X c #C3C3C3",
"=X c gray77",
"-X c #C5C5C5",
";X c #C6C6C6",
":X c gray78",
">X c #C8C8C8",
",X c gray79",
"<X c #CACACA",
"1X c #CBCBCB",
"2X c gray80",
"3X c #CDCDCD",
"4X c #CECECE",
"5X c gray81",
"6X c #D0D0D0",
"7X c gray82",
"8X c #D2D2D2",
"9X c LightGray",
"0X c gray83",
"qX c #D5D5D5",
"wX c gray84",
"eX c #D7D7D7",
"rX c #D8D8D8",
"tX c gray85",
"yX c #DADADA",
"uX c gray86",
"iX c gainsboro",
"pX c #DDDDDD",
"aX c gray87",
"sX c #DFDFDF",
"dX c gray88",
"fX c #E1E1E1",
"gX c #E2E2E2",
"hX c gray89",
"jX c #E4E4E4",
"kX c gray90",
"lX c #E6E6E6",
"zX c #E7E7E7",
"xX c gray91",
"cX c #E9E9E9",
"vX c #EAEAEA",
"bX c gray92",
"nX c #ECECEC",
"mX c gray93",
"MX c #EEEEEE",
"NX c #EFEFEF",
"BX c gray94",
"VX c #F1F1F1",
"CX c gray95",
"ZX c #F3F3F3",
"AX c #F4F4F4",
"SX c gray96",
"DX c #F6F6F6",
"FX c gray97",
"GX c #F8F8F8",
"HX c #F9F9F9",
"JX c gray98",
"KX c #FBFBFB",
"LX c gray99",
"PX c #FDFDFD",
"IX c #FEFEFE",
"UX c white",
/* pixels */
"1X;X=XyXfXaX9X>X-X>X2X,X>XzXMXbXjXjXhXwX=X&X,X9X0XqX1X,X1X3X3X5XwXdXgXuX,X1X2X>X:X,X1X,X2X2X,X1X3X,X<X,X",
";X%X@XeXdXiX5X=X#X%X:X=X%XvXAXNXlXxXkX0X%X#X=X8XwX0X>X,X1X:X;X,X8XsXgXtX-X,X,X&X%X-X=X%X=X:X;X<X,X&X*X*X",
",X-X%XeXpXtX5X-X%X*X;X*X&XvXAXNXlXcXzXqX=X*X:X0XtXeX<X2X3X:X*X;X8XaXdXtX:X1X1X&X$X*X*X+X%X:X>X2X<X$X$X&X",
"1X>X>X7X5X2X8X8X7X7X1X:X,XeXwX0XqX0X8XwXyXtXwX3X1X3XsXgXgX6X:X,X5X6X7X7X4X5X6X7X5X6X4X>X:X3X2X3X3X:X>X,X",
"*X=X*X>X>X*X4XeXrX9X<X>X-X1X,X=X,X>X=X0XcXlXuX-X%X%XnXAXBX3X%X-X:X-X;X;X:X1X2X0X0X8X3X,X-X;X-X>X:X&X-X-X",
"&X*X&X,X2X:X4X0XwX8X2X<X:X3X4X>X1X1X:XqXvXxXiX,X-X-XnXSXVX1X+X%X;X=X-X;X=X;X,X9X0X8X3X1X:X;X&X=X-X@X$X&X",
"2X<X1X3X1X<X9XrXtXwX2X<X1X4X2X1X7X7X6XtXjXhXiX2X,X1XaXdXaX4X*X=X2X1X<X2X:X-X,X8X7X5X7X5X3X6X5X5X6X:X-X;X",
"6X8X9X-X&X=X7XfXhXtX=X$X$X-X-X=X5XqXrXyXjXhXyX:X;X;X2X1X>X>X*X@X>X2X<X>X-X$X$X,X;X%X2X5X,X9XgXsXeX<X:X&X",
"4X4X6X*X#X&X8XdXfXrX;X&X%X=X=X*X2X6X9XtXlXkXuX-X;X-X4X4X<X>X=X#X;X:X=X-X;X&X$X;X%X+X,X<X=X7XhXdXeX<X:X%X",
"4X1X3X:X$X;XuXjXhXyX,X;X:X:X-X;X7X7X9XrXaXaXtX3X2X3X5X3X2X2X;X*X<X;X*X,X3X1X<X:X%X%X1X>X-X8XiXtXwX5X3X1X",
":X,X2X;X-X4XdXnXmXdX=X>X,X-X:X1XyXgXfX9X=X;X2XjXlXgX,X%X$X<X:X*X,X,X-X2XkXjXsX,X%X#X1X<X-X<X1X:X4XkXjXfX",
"&X-X,X*X*X1XuXvXnXaX$X-X;X@X#X;XyXjXgX7X$X*X<XkXzXgX,X&X#X,X<X=X>X2X:X3XxXxXfX,X&X@X<X2X:X,X2X>X3XxXxXhX",
";X;X,X>X;X,XeXjXkXiX*X=X>X%X@X*XtXfXdX8X%X&X1XfXgXsX3X>X-X3X4X<X3X4X<X6XjXkXsX3X,X;X4X4X1X4X6X3X7XjXjXfX",
"8X8X6XwXuXtXqX7X3X5XpXiXyX6X1X,X,X=X;X4X6X7X7X<X2X4XpXdXfXjXbXbXtX:X<X1X-X;X<XkXbXcX7X>X<XqXfXgXuX-X;X>X",
"2X3X<X0XuXrX6X2X:X,XhXhXpX7X4X,X*X#X*X2X9XeX7X;X1X2XfXzXzXvXAXSXyX;X2X,X#X%X:XbXAXCX6X>X1XwXlXcXiX#X%X*X",
",X;X;X9XrXqX6X,X-X<XhXhXaX8X7X3X:X*X;X4XqXtX0X<X4X5XgXxXzXcXCXZXuX<X4X2X*X-X<XvXCXBX8X1X4XeXzXcXaX*X;X:X",
"3X,X:X5X4X<XqXkXjXfXzXzXhXrXqX9XyXiXuXwX4X2X8XhXjXfX8X3X2X0X0X7XtXjXjXdXiXiXuXwX9X7X0X9X7X8X4X2X7XiXiXuX",
"<X,X&X;X;X+X9XHXGXmXMXNXxXyXrX9XdXxXkXeX<X;X4XCXZXbX>X$X+X,X<X=XrXAXZXcXzXzXfX3X,X=X7XwX8X2X&X+X>XxXzXgX",
"<X>X*X=X$X X8XHXGXMXNXVXvXuXuXwXfXvXzXrX4X<X6XCXAXbX1X=X%X2X4X>XtXSXAXvXcXcXgX6X4X>X0XtXqX4X;X&X1XxXxXhX",
"1X,X>X3X,X;X8XiXyXtXuXyXtXdXgXdXiXuXtXqX4X2X7XsXaXuX3X>X:X9X0X8XeXuXtXtXtXrXwX5X1X,X8X8X5X6X1X>X6XjXhXfX",
"&X=X*X3X6X4X<X%X+X%X;X&X=XbXZXNXeX5X<X1X<X:X>X4X1X>X;X$X@X9XtXrX5X%X+X*X,X;X*X;X$X+X>X:X&X>X,X-X2XlXkXgX",
"$X%X%X2X6X4X1X-X%X*X:X-X-XnXSXVXrX9X4X2X4X<X,X7X6X<X>X=X$X0XtXrX6X-X%X=X3X<X;X>X=X$X<X1X-X,X2X>X3XcXxXhX",
",X>X>X8X9X8X7X<X,X1X<X,X1XkXbXxXeX6X4X7X7X5X6X6X4X3X2X,X>X0X0X9X9X5X3X4X4X2X1X2X>X:X4X3X1X6X0X8X0XsXsXpX",
"uXyXyXiXiXpXeX3X7X5X<X1X3XsXgXdX2X=X-X4XtXrX9X-X$X$X;X:X,X2X>X=X0XzXjXiX1X>X;X<X;X*X:X;X:XeXmXNXdX;X=X=X",
"yXtXyXiXiXpXwX>X3X2X-X;X<XdXjXfX,X$X&X3XtXrX8X-X%X$X$X$X=X1X1X-X0XvXxXpX3X1X;X1X,X*X*X#X&XwXMXVXdX;X=X*X",
"tXrXtXiXpXpXeX:X<X3X,X:X1XaXdXaX3X*X=X6XrXeX9X,X:X;X&X$X*X4X6X2XeXkXjXiX5X3X1X3X2X,X:X$X&XqXxXcXaX,X>X>X",
"2X3X4XyXsXdXrX3X6X5X3X6X5X5X6X6XiXjXkXrX3X6X4X1X4X3X<X1X2XyXhXjXwX<X4X3X<X2X3X<X1X2X<X;X,X2X2X5X4X3X5X5X",
"=X;X>XrXsXdX0X:X3X1X:X2X1X>X1X1XiXzXvXeX;X1X,X;X<X<X:X,X<XyXjXlX0X&X:X>X*X:X>X=X=X:X=X$X=X;X*X:X:X:X2X2X",
"*X*X;XrXsXdX0X-X,X<X-X>X<X:X:X,XuXjXlXwX*X:X,X-X:X<X:X;X>XtXdXgX9X%X-X>X&X*X:X*X%X=X=X@X%X;X$X=X;X-X>X1X",
"<X>X;X5X0XqXrXaXsXsXhXkXgX5X4X5X6X5X6XtXjXkXaX<X1X3X5X5X6X8X8X9XeXaXsXyX<X1X3X<X<X1X1X:X,X2X,X1X2X2X5X6X",
";X*X+X=X<X2XwXzXcXlXVXSXmX2X2X3X-X%X=XrXZXSXjX%X=X;X:X<X1X>X,X1X0XjXzXiX=X>X,X=X;X>X-X%X-X;X=X,X>X>X3X3X",
"*X#XXX*X;X,XqXkXlXjXNXZXnX>X:X,X*XOX#XeXCXZXhX@X#X=X-X-X:X:X-X:X9XfXjXyX%X*X;X&X%X=X*X+X%X-X$X=X-X=X>X<X",
"2X>X:X2X<X1XqXpXaXiXiXpXiXeXeXrXrXrXtXyXiXaXrX>X>X1X6X6X8X5X1X2X0XuXpXrX>X,X2X5X5X6X3X>X<X4X2X4X8XtXuXiX",
"8X6X2X:X*X;X3XqXtX9X,X3X4XgXcXxXvXAXSXiX>X4X1X*X-X>X8XeXeX1X,X2X5XwXyX9X*X-X>X7XeXeX1X>X1X2X6X0XeXmXVXMX",
"0X9X4X=X@X%X1X8XwX8X-X,X1XdXzXzXcXZXAXyX=X,X>X@X$X=X5X9X0X,X=X:X3X9XwX7X@X$X-X4X8X9X>X&X;X,X2X6XqXbXNXmX",
"rXrXwX3X-X;X5X8X8X9X7X8X0XuXiXiXfXkXjXyX6X8X9X1X1X4X8X7X8X5X,X<X6X7X8X7X>X:X1X7X6X7X7X4X6X7X3X3X9XfXfXdX",
"xXcXzXqX3X,X2X6X2X7XBXZXbX3X:X*X3X6X<XtXZXCXcXxXxXgX7X4X,X6X8X3X2X,X-X>XqX0X5X4X2X:XfXBXMXyX>X-X:X3X1X-X",
"bXmXcX0X3X>X,X2X:X4XCXAXbX,X%X+X<X2X-XrXAXZXcXzXzXdX3X,X=X2X4X,X>X*X@X=X8X6X1X<X:X%XdXVXMXrX*X#X&X,X;X$X",
"kXlXjXqX4X1X3X<X;X5XnXmXzX1X=X*X2X,X;XeXbXvXjXjXhXdX3X:X;X3X1X>X1X;X&X,X6X3X2X<X-X*XpXxXlXeX-X*X:X>X-X*X",
">X:X,X9XeXtXqX2X5X0XlXxXlXxXmXnXqX3X5X4X;X>X7XmXBXbX6X3X5X3X1X3XwXjXlXaX2X5X5X3X4X5X1X,X<XwXjXkXpX<X1X<X",
"*X-X:X9XuXaX0X4X8XqXxXnXcXMXDXAXwX5X8X1X*X:X5XCXDXNX6X6X8X>X;X,XqXlXcXaX:X2X1X>X1X2X=X$X*X0XzXcXaX-X>X;X",
":X,X1XqXiXaXwX6X0XeXxXbXxXnXZXVXrX7X0X5X:X1X8XNXZXmX8X9X0X,X=X:X0XhXkXpX;X>X<X>X:X<X-X@X%X9XhXkXpX-X;X:X",
"fXfXdXrX8X6XyXxXxXfX6X3X3XwXwX9XdXcXxXgXfXfXpXeXqX0XtXrXeX6X>X;X4X8X0XqXsXfXsXsXfXdX8X2X4X5X3X5X0XkXzXkX",
"vXnXcXeX7X2XuXDXSXkX>X=X&X6X6X<XjXDXAXcXnXbXdX7X5X1XyXiXeX3X;X%X-X,X3X7XlXcXlXzXvXzX5X<X3X>X$X*X5XVXSXVX",
"vXnXcXrX0X5XiXSXSXlX1X,X-X8X9X4XkXDXAXcXmXnXfX0X8X4XiXaXtX5X<X-X;X-X>X5XhXlXjXlXcXzX4X-X>X;XOX#X3XNXCXNX",
"kXlXjXrX8X6XrXdXsXtX2X<X<XaXfXsXuXtXrXtXiXyXyXfXfXsXfXfXsXqX5X3X4X<X1X7XuXpXiXrXtXrXrXtXyXyXyXiXuXyXiXyX",
"cXbXxXwX6X2X5X0X7X3X>X=X*XnXSXVX8X=X$X,X7X3X8XCXSXMXcXbXxXeX7X2X>X&X;X<X0XrXwX<X2X3XpXcXcXzXZXSXkX,X3X1X",
"bXMXcXrX9X5X7XrXqX6X1X>X;XmXFXZX0X,X=X1XqX7X9XZXDXNXvXmXcXrX0X5X:X+X%X>X7XqX0X;X:X,XuXlXxXzXCXAXjX-X,X>X",
"sXsXpXuXuXtXeX9X7X7X5X2X2XgXkXhXrX9X7X9X0X7XqXkXlXgXfXfXsXtXeXwX7X;X;X3X8X8X9X9X9X0XyXuXuXpXhXhXpX9X9X0X",
"1X:X*XgXAXCXiX;X&X;X7X5X2X5X3X,XsXbXcXiX6X3X3X7X4X1X7X5X1XtXsXsXrX4X<X<X6X4X1XnXAXBX9X:X&X<X5X1X6XVXZXMX",
"3X1X=XgXDXSXiX,X-X;X9X8X2X7X7X1XdXMXbXiX9X6X3X9X8X3X9X9X3XtXsXsXrX3X<X>X2X,X:XnXAXBX6X&X+X:X2X:X4XCXAXMX",
"5X3X,XgXVXBXiX1X,X1X0X9X6X9X8X5XdXvXxXiX0X8X7X0X9X7X0X0X6XuXsXsXrX3X1X1X<X:X,XxXMXbX6X%X#X<X<X;X6XnXmXvX"
};
