/* XPM */
static char *result[] = {
/* columns rows colors chars-per-pixel */
"52 52 116 2 ",
"   c #000000",
".  c #040608",
"X  c #07090B",
"o  c #090B0D",
"O  c #0A0D12",
"+  c #0E141B",
"@  c #111214",
"#  c #18191C",
"$  c #121923",
"%  c #161F2C",
"&  c #1A2534",
"*  c #1D2B3C",
"=  c #212122",
"-  c #282B2F",
";  c #2A2F36",
":  c #232E3C",
">  c #2D3137",
",  c #1F2D40",
"<  c #223145",
"1  c #293647",
"2  c #24354C",
"3  c #363A40",
"4  c #2A3C53",
"5  c #2C415E",
"6  c #2F4562",
"7  c #304763",
"8  c #324865",
"9  c #354C69",
"0  c #394F6A",
"q  c #3C516D",
"w  c #3D5472",
"e  c #40454C",
"r  c #4B4C4C",
"t  c #494D53",
"y  c #454F5D",
"u  c #4E5156",
"i  c #4B5059",
"p  c #525253",
"a  c #545659",
"s  c #57595D",
"d  c #5B5B5C",
"f  c #425267",
"g  c #485566",
"h  c #4D5868",
"j  c #565C66",
"k  c #585F6B",
"l  c #415672",
"z  c #445874",
"x  c #525F70",
"c  c #5F6061",
"v  c #5B626D",
"b  c #4A607F",
"n  c #59677C",
"m  c #5A687D",
"M  c #656565",
"N  c #676768",
"B  c #67696B",
"V  c #616772",
"C  c #646A72",
"Z  c #666E7B",
"A  c #6F7275",
"S  c #4E6483",
"D  c #526783",
"F  c #556984",
"G  c #596981",
"H  c #546B8B",
"J  c #596D89",
"K  c #5E728D",
"L  c #586F90",
"P  c #5C7496",
"I  c #5F789A",
"U  c #647287",
"Y  c #6D7685",
"T  c #64748D",
"R  c #6D798B",
"E  c #757A83",
"W  c #7A7D82",
"Q  c #607694",
"!  c #667995",
"~  c #647C9D",
"^  c #6A7E9B",
"/  c #657EA1",
"(  c #687FA0",
")  c #6D819D",
"_  c #778190",
"`  c #7A8390",
"'  c #73829A",
"]  c #7A8699",
"[  c #7D899B",
"{  c #6780A3",
"}  c #6C83A5",
"|  c #7086A6",
" . c #7489A7",
".. c #7C8CA4",
"X. c #7087A8",
"o. c #768CAB",
"O. c #798FAD",
"+. c #7C91AE",
"@. c #7E93B0",
"#. c #808A9A",
"$. c #8591A5",
"%. c #8393AC",
"&. c #8C97AB",
"*. c #8E9AAF",
"=. c #8396B2",
"-. c #8799B4",
";. c #8B9BB5",
":. c #8C9FB9",
">. c #909EB6",
",. c #909FB8",
"<. c #8EA0BA",
"1. c #94A1B7",
"2. c #92A3BC",
"3. c #99A6BD",
"4. c #9FAEC3",
"5. c None",
/* pixels */
"5.5.5.5.5.5.5.5.5.5.5.5.5.5.5.5.5.5.5.5.5.5.5.5.5.5.5.5.5.5.5.5.5.5.5.5.5.5.5.5.5.5.5.5.5.5.5.5.5.5.5.5.",
"5.5.5.5.5.5.5.5.5.5.5.5.5.5.5.5.5.5.5.5.5.5.5.5.5.5.5.5.5.5.5.5.5.5.5.5.5.5.5.5.5.5.5.5.5.5.5.5.5.5.5.5.",
"5.5.5.4.O.O.O.O.O.O.O.O.O.O.O.O.O.O.O.O.O.O.O.O.O.O.O.O.O.O.O.O.O.O.O.O.O.O.O.O.O.O.O.O.O.o.@.R 5.5.5.5.",
"5.5.5.2.I / / ~ / ~ / / / / / / / ~ / / ~ / / / / / / / / ~ / / / ~ / / / / / / / ~ / / / / / G 5.5.5.5.",
"5.5.5.2./ I 0 1 : : : : : : : , : : : : : : : : : : : : : : : : : : : : : : : : : : : : x } / G 5.5.5.5.",
"5.5.5.2./ P 8 2 $                                                                       u O./ G 5.5.5.5.",
"5.5.5.2./ P 8 6 6 2 $                                                                   u  ./ G 5.5.5.5.",
"5.5.5.2./ P 7 w H w 6 , @                                                               u O./ G 5.5.5.5.",
"5.5.5.2./ P 7 9 J ~ H w 4 * o                                                           u O./ m 5.5.5.5.",
"5.5.5.2./ P 8 9 L O...^ F w 4 % .                                                       u O./ F 5.5.5.5.",
"5.5.5.2./ P 8 z ^ | O.;.%.^ D 0 4 $                                                     u o./ m 5.5.5.5.",
"5.5.5.2./ P 8 6 D (  .-.;.>.=.^ D 9 < +                                                 u o./ F 5.5.5.5.",
"5.5.5.2./ P 7 w Q / } o.=.:.,.,.%.^ D 8 * o                                             u O./ m 5.5.5.5.",
"5.5.5.2./ P 7 w ! / ( T h $.;.,.,.1.%.^ b 6 & X                                         u o./ F 5.5.5.5.",
"5.5.5.2./ P 8 8 H / / G = A v ] -.,.1.,.%.^ z 4 .                                       u O./ G 5.5.5.5.",
"5.5.5.2./ P 8 z ^ / { G = M r r C Y $.,.2.,.%.F o                                       u O./ G 5.5.5.5.",
"5.5.5.2./ P 8 9 H ) { m = B r r a p a Z [ %.=.J O                                       i O./ G 5.5.5.5.",
"5.5.5.2./ P 8 0 L { { m = B r r d p p p c k ( J O                                       t o./ G 5.5.5.5.",
"5.5.5.2./ P 8 w ) / ) m = N r r d p p p c t ~ J o                                       u O./ G 5.5.5.5.",
"5.5.5.<./ P 8 8 S / } m = N r r d p p r d t ~ F o                                       u O./ G 5.5.5.5.",
"5.5.5.2./ P 8 w ~ ) { n = B r r p p p r d t ~ J o                                       u O./ G 5.5.5.5.",
"5.5.5.2./ P 8 0 K { { n = M r r p p p p c t ! J o                                       t O./ G 5.5.5.5.",
"5.5.5.2./ P 8 8 H / { n = M r r d p p p d t ^ F O                                       u O./ m 5.5.5.5.",
"5.5.5.2./ P 8 l ) { { ) v W B d c p p p d t ^ J o                                       u O./ F 5.5.5.5.",
"5.5.5.2./ P 8 8 D { ~ } o. .o.....] ` E E V ^ F o                                       u O./ G 5.5.5.5.",
"5.5.5.2./ P 8 q P { { / { { { { { { } } X.X.} J o                                       u O./ m 5.5.5.5.",
"5.5.5.2./ P 8 w ! { { I o.o.o.@.} ~ } X.} { / F o                                       u O./ F 5.5.5.5.",
"5.5.5.2./ P 8 8 S { { { +.=.<.<.X.{ +.;.;.{ / F o                                       u o./ G 5.5.5.5.",
"5.5.5.2./ P 6 w ) I { { -.3.<.+.{ { ;.<.O./ { J o                                       i O./ G 5.5.5.5.",
"5.5.5.2./ P 8 q H { { } -.=.+.o.{ } +.+. ./ / F o                                       t O./ G 5.5.5.5.",
"5.5.5.2./ P 8 8 H { / { } } } { / / { { } / { G o                                       u O./ G 5.5.5.5.",
"5.5.5.2./ P 8 z ) / / { { } } } { { ~ { / / / F o                                       u O./ G 5.5.5.5.",
"5.5.5.2./ P 8 7 D / / / X.+.+.@.} / / / / / / F o                                       u O./ F 5.5.5.5.",
"5.5.5.4./ P 8 q ~ / / / X.O.@.O.} / / / / / / G o                                       u O./ m 5.5.5.5.",
"5.5.5.2./ P 8 w Q / / / o.O.@.O.} / ( / / / / D o                                       u o./ F 5.5.5.5.",
"5.5.5.2./ P 8 8 H / / / X.X.o.X.{ / / / / / { F X                                       u O./ m 5.5.5.5.",
"5.5.5.2./ P 8 l ) ~ / / / { / / ( / / / ( / / F o                                       u o./ F 5.5.5.5.",
"5.5.5.2./ P 8 9 H { / / / / / / / / / / / / / D X                                       u O./ m 5.5.5.5.",
"5.5.5.2./ P 7 9 P ~ ~ { / / { / / / / / / / / F o                                       t O./ G 5.5.5.5.",
"5.5.5.2./ P 7 z ! { / { / / / / / / ( / ( / / n X                                       u O./ G 5.5.5.5.",
"5.5.5.2./ P 8 8 H ~ / / / { / / ( } } X.X.| ( G X                                       u O./ F 5.5.5.5.",
"5.5.5.2./ P 8 w ^ / / / { ~ { { X. .o.O.%.O.o.J X                                       u O./ m 5.5.5.5.",
"5.5.5.2./ P 8 0 J / / / ~ { }  .O.%.%.-.;.,.&.y .                                       u O./ F 5.5.5.5.",
"5.5.5.4./ P 8 8 L / / { { } o.%.=.-.,.3.>.Y ; .                                         u O./ m 5.5.5.5.",
"5.5.5.2./ P 7 z ^ ( / ( } O.%.;.2.3.3._ > X                                             u X./ G 5.5.5.5.",
"5.5.5.2./ P 8 9 D / / } +.=.:.2.3.#.e o .                                               u O./ G 5.5.5.5.",
"5.5.5.2./ P 7 0 ~ / ( O.-.1.3.$.i @                                                     u O./ G 5.5.5.5.",
"5.5.5.2./ P 7 l Q ( o.;.3.&.j #                                                         u O./ G 5.5.5.5.",
"5.5.5.2./ P 8 8 H X.;.;.V =                                                             u O./ G 5.5.5.5.",
"5.5.5.2./ P 8 w ) ..Z -                                                                 t O./ m 5.5.5.5.",
"5.5.5.2./ P 8 q g > X                                                                   u  ./ F 5.5.5.5.",
"5.5.5.3.} ^ f ; o                                                                       a =.X.U 5.5.5.5."
};
