/* XPM */
static char *result[] = {
/* columns rows colors chars-per-pixel */
"52 52 124 2 ",
"   c #010101",
".  c #080807",
"X  c #0B0B0B",
"o  c #0E0F10",
"O  c #151616",
"+  c #191A1D",
"@  c #1A1D21",
"#  c #242525",
"$  c #232528",
"%  c #272828",
"&  c #292929",
"*  c #2C2E33",
"=  c #2E3136",
"-  c #323333",
";  c #3B3C3C",
":  c #353A42",
">  c #3B3D41",
",  c #263D5B",
"<  c #2D4461",
"1  c #304764",
"2  c #334967",
"3  c #3B516E",
"4  c #3D5473",
"5  c #444649",
"6  c #474B53",
"7  c #4A4E55",
"8  c #4D5158",
"9  c #535353",
"0  c #52565D",
"q  c #54585F",
"w  c #585A5D",
"e  c #41556E",
"r  c #415673",
"t  c #415876",
"y  c #4A5D77",
"u  c #465C7B",
"i  c #485E7D",
"p  c #5C6067",
"a  c #5E6269",
"s  c #4E6077",
"d  c #4E617A",
"f  c #53657E",
"g  c #58687F",
"h  c #646464",
"j  c #67696C",
"k  c #606773",
"l  c #656A72",
"z  c #6B6F76",
"x  c #666E7A",
"c  c #6C7077",
"v  c #6A727F",
"b  c #7B7B7C",
"n  c #4D6381",
"m  c #546986",
"M  c #596981",
"N  c #566D8D",
"B  c #5A6E8C",
"V  c #5C718E",
"C  c #576F90",
"Z  c #5C7394",
"A  c #5F7798",
"S  c #647287",
"D  c #62748D",
"F  c #6B798D",
"G  c #7A7D82",
"H  c #757C88",
"J  c #637692",
"K  c #657996",
"L  c #6A7C96",
"P  c #607798",
"I  c #647C9E",
"U  c #697D9A",
"Y  c #657EA1",
"T  c #687FA0",
"R  c #7F8185",
"E  c #6D819E",
"W  c #73839A",
"Q  c #79879C",
"!  c #7A889F",
"~  c #6780A3",
"^  c #6B83A4",
"/  c #7187A6",
"(  c #7488A5",
")  c #7C8BA2",
"_  c #7087A8",
"`  c #758BA9",
"'  c #798EAC",
"]  c #7D91AE",
"[  c #7E93B0",
"{  c #848484",
"}  c #83868C",
"|  c #86888B",
" . c #8D9096",
".. c #8F9399",
"X. c #91949A",
"o. c #999A9B",
"O. c #8290A6",
"+. c #8293AD",
"@. c #8396B2",
"#. c #8897B0",
"$. c #8599B4",
"%. c #8B9BB5",
"&. c #8D9EB8",
"*. c #919FB6",
"=. c #909FB8",
"-. c #9EA1A5",
";. c #8EA0BA",
":. c #92A0B7",
">. c #93A3BB",
",. c #99A6BC",
"<. c #97A8BF",
"1. c #9CA8BC",
"2. c #A2A2A3",
"3. c #A2A5AA",
"4. c #ADAEAE",
"5. c #AAADB2",
"6. c #AFB2B6",
"7. c #B4B4B5",
"8. c #B6B6B8",
"9. c #B8B8B9",
"0. c #9EAEC3",
"q. c #A0AFC5",
"w. c #A2B1C6",
"e. c None",
/* pixels */
"e.e.e.e.e.e.e.e.e.e.e.e.e.e.e.e.e.e.e.e.e.e.e.e.e.e.e.e.e.e.e.e.e.e.e.e.e.e.e.e.e.e.e.e.e.e.e.e.e.e.e.e.",
"e.e.e.e.e.e.e.e.e.e.e.e.e.e.e.e.e.e.e.e.e.e.e.e.e.e.e.e.e.e.e.e.e.e.e.e.e.e.e.e.e.e.e.e.e.e.e.e.e.e.e.e.",
"e.e.e.0.` ` ' ] ` ' ' ' ] ` ` ' [ ` ] ` [ ' ' ' [ [ ` ` ' ' [ ' ' ' ` ] ] ` [ ` ' ' [ ' ` [ ] F e.e.e.e.",
"e.e.e.>.Y Y Y I Y I Y Y Y Y Y Y Y Y Y Y A Y Y ~ Y A Y Y I I I Y I Y Y Y Y I I I I I I Y I Y Y M e.e.e.e.",
"e.e.e.&.Y A t 4 4 t t 4 t t t t 4 4 4 t t t 4 4 t 4 t t 4 4 4 n 4 t t 4 t 4 t t 4 4 t 4 V / Y M e.e.e.e.",
"e.e.e.0.Y Z 2 < < 2 2 2 2 2 2 2 2 2 2 2 2 2 2 2 2 2 2 2 2 2 2 2 2 2 2 2 2 2 2 2 2 2 2 < k ` Y g e.e.e.e.",
"e.e.e.>.Y Z 2 < B J N C U Z N Z U Z N K K N Z L Z C Z U C N A K N Z L J C A K B Z Z I m x ' I M e.e.e.e.",
"e.e.e.>.Y A 2 < y P ` +.W O.=.+.W %.&.) ) ;.%.W +.:.#.W %.;.) ) >.%.W +.%.+.W %.$.` J J v ` Y M e.e.e.e.",
"e.e.e.>.Y Z 2 < 4 Z / ' +.%.=.=.*.>.,.=.*.,.1.*.,.,.,.%.,.,.:.:.1.<.%.:.>.*.#.%.+./ I Z S ` Y M e.e.e.e.",
"e.e.e.>.Y A 2 1 P ^ T / ` [ @.%.#.%.&.=.=.=.*.*.:.:.:.>.%.>.>.%.%.%.%.%.%.@.+.' / ^ ] U v ` Y M e.e.e.e.",
"e.e.e.>.Y Z 2 < e Z Y Y ^ ` W L O.+.W +.O.W %.O.Q %.) Q %.) Q %.) ( #.Q L ' ( ^ ~ I N V v ` Y M e.e.e.e.",
"e.e.e.>.Y Z 2 < i P Y Y Y ` : X G G o | j O o.w + -.5 $ 4.; $ 7.5 - 7.= @ ! ^ Y I ~ ~ K v ` Y g e.e.e.e.",
"e.e.e.>.Y Z 2 2 D U Y Y Y ` *   R b   { h   o.9 X 2.; O 4.= O 7.; & 9.# X Q ~ Y ~ ^ ( K v ` E M e.e.e.e.",
"e.e.e.0.Y Z 2 < 3 C Y Y I ' =   { b   { h   o.9 X 2.; O 4.= O 7.; & 9.% o Q ~ Y Y I N V v ` Y g e.e.e.e.",
"e.e.e.>.Y Z 2 < m I Y Y Y ` -   b b   { h . o.9 X 2.; O 4.- O 7.; & 9.# o Q ~ Y I ~ ` I v ` Y g e.e.e.e.",
"e.e.e.>.Y Z 2 1 M U Y Y Y ` =   R b   | h . o.9 X 2.; O 4.- O 7.; & 9.% o Q ~ Y ~ ~ L J S ` Y M e.e.e.e.",
"e.e.e.;.Y A 2 < 3 Z Y Y Y ` =   R b   | h . o.9 X 2.; O 4.- O 8.; & 9.# o Q ~ Y Y Y Z Z v ` ~ M e.e.e.e.",
"e.e.e.>.Y A 2 < D ^ Y Y Y ( =   b b   { h   o.9 X 2.; O 4.- O 7.; & 9.# o Q T Y Y ^ ] K v ` Y M e.e.e.e.",
"e.e.e.>.Y Z 2 < y Z Y Y Y ` =   b b   { h . o.9 X 2.; O 4.- O 7.; & 9.# o Q E Y Y I B Z v ` Y M e.e.e.e.",
"e.e.e.0.Y Z 2 < t Z Y T I ` =   b b   | h   o.9 X 2.; O 4.- O 7.; # 9.# o Q ^ Y Y Y I A v ` Y M e.e.e.e.",
"e.e.e.>.Y Z 2 2 D ^ Y Y Y ` =   R b   { h   o.9 . 2.; O 4.- O 7.; % 8.# o Q ~ Y Y ^ ' L S ` Y g e.e.e.e.",
"e.e.e.>.Y Z 2 < e B T Y ~ ` *   b b   { h   o.9 . 2.; O 4.- O 7.; # 8.# X Q ~ Y Y I m Z v ` ~ M e.e.e.e.",
"e.e.e.>.Y Z 2 < n K Y Y Y ` x 7  .X.6 X.| 7 2.G 8 3.z q 5.l 9 6.v p 7.a 0 +.Y Y Y Y ^ K v ` Y M e.e.e.e.",
"e.e.e.>.Y Z 2 2 V E Y Y ~ _ [ [ W ( $.^ ` @.^ ' @.E ] @.E ] ] E [ ] E @.$.' Y Y Y ^ Q K v ` Y g e.e.e.e.",
"e.e.e.0.I Z 2 < 3 C ~ Y Y Y I I Y Y Y ~ I ~ Y ~ I Y Y Y Y Y Y Y Y Y Y Y Y Y Y Y Y Y N V S ` Y M e.e.e.e.",
"e.e.e.>.I Z 2 < N E I ~ Y Y ~ ` ~ ' ~ ` ^ _ ~ ~ Y Y Y _ ^ ` ~ ` ^ ` ~ Y Y Y Y Y Y ^ ` U v ` Y M e.e.e.e.",
"e.e.e.>.Y Z 2 1 n K ~ ~ Y Y Y ;.` ;._ ;.[ 0.[ _ Y Y I @.' @.` &.@.0.[ Y Y Y Y Y Y Y J J v ` Y M e.e.e.e.",
"e.e.e.>.Y Z 2 < 4 C I ~ Y Y A $._ 0.$.q.$.0.~ ~ Y Y Y @.` &.;.0.&.;.Y Y Y Y Y Y Y Y P Z v ` Y g e.e.e.e.",
"e.e.e.;.Y Z 2 1 D ^ E A ~ ~ ~ [ 0.0.;.$.^ &.~ I Y ~ ^ ;.;.0.[ &.` @.Y Y Y Y Y Y Y ^ ] U v ( Y M e.e.e.e.",
"e.e.e.;.Y Z 2 1 t V ~ ~ ~ ~ ' 0.' [ [ $.~ &.Y Y Y ^ [ 0.` [ [ $.` @.Y Y Y Y Y Y Y I m Z v ' Y M e.e.e.e.",
"e.e.e.0.Y Z 2 < u A Y Y Y Y Y _ _ _ ` ' ~ _ Y Y Y Y Y _ ~ ` _ ` _ ` Y Y Y Y Y Y Y Y ^ A v ( Y M e.e.e.e.",
"e.e.e.;.Y Z 2 2 Z ~ Y Y Y Y ~ ~ ~ ~ ~ ~ Y Y Y Y Y Y Y Y ~ Y Y ~ Y Y Y Y Y Y Y Y Y ^ ) K S ` Y M e.e.e.e.",
"e.e.e.0.Y Z 2 < 4 C T Y Y Y Y T [ Y ' Y [ _ Y Y Y Y Y Y Y Y Y Y Y Y T Y Y Y Y Y Y Y N V S ( T M e.e.e.e.",
"e.e.e.;.Y A 2 < n I Y Y Y Y Y _ $.' $.' [ $.' Y Y Y Y Y Y Y Y Y Y Y Y Y Y Y Y Y Y Y _ P v ( Y M e.e.e.e.",
"e.e.e.0.Y Z 2 2 N I Y Y Y Y Y _ $.Y $.[ _ $.Y Y Y Y Y Y Y Y T Y Y Y Y Y Y Y Y Y Y T T I S ` Y M e.e.e.e.",
"e.e.e.&.Y Z 2 < 3 C Y Y Y Y Y _ $.Y $.$._ $.Y Y Y Y Y Y Y Y Y Y Y Y Y Y Y Y Y Y Y Y A A S ` Y M e.e.e.e.",
"e.e.e.0.I C 2 < B T T Y Y Y Y ` @.T $.$.T $.T Y Y Y Y Y Y Y Y Y Y Y Y Y Y Y Y Y T Y ' I c ' T M e.e.e.e.",
"e.e.e.;.Y Z 2 < f P Y Y Y Y Y T _ T ' T T [ T Y Y Y Y Y Y Y Y Y Y Y Y Y Y Y Y Y Y T D J v ( T M e.e.e.e.",
"e.e.e.&.Y Z 2 < r C Y Y Y Y Y Y Y Y Y Y T Y Y Y Y Y Y Y Y Y Y Y Y Y Y Y Y Y Y Y Y Y I Z S ` Y M e.e.e.e.",
"e.e.e.0.Y Z 2 2 D / Y Y Y Y Y Y Y Y Y Y Y Y Y Y Y Y Y Y Y Y Y Y Y _ Y Y Y Y Y Y Y T ' U c ` Y M e.e.e.e.",
"e.e.e.&.Y A 2 < r B T Y Y Y Y Y Y Y Y Y Y Y Y Y Y Y T Y Y Y Y Y Y Y Y T Y Y Y Y Y T N Z S ` T M e.e.e.e.",
"e.e.e.&.Y Z 2 < i P Y Y Y Y Y Y Y Y Y Y Y Y Y Y Y Y Y Y Y Y Y Y Y Y Y Y Y Y Y Y Y Y T P v ) Y M e.e.e.e.",
"e.e.e.0.Y Z 2 2 D ^ Y Y Y Y Y Y Y Y Y Y T Y Y Y Y Y Y Y Y Y Y Y Y Y Y Y Y Y Y T Y T ( K S ` Y M e.e.e.e.",
"e.e.e.&.Y Z 2 < 3 B Y Y Y Y Y Y Y Y Y Y Y Y Y Y Y Y Y Y Y Y Y Y Y Y Y Y Y Y Y Y Y Y N V c ` Y M e.e.e.e.",
"e.e.e.0.Y Z 2 < m Y Y Y T Y Y Y Y Y Y Y Y T Y T T T Y T T T T T Y Y Y Y Y Y Y Y Y T ` K c ` T M e.e.e.e.",
"e.e.e.&.Y Z 2 2 M L Y Y Y Y Y Y Y Y T T _ T _ T ' _ _ ' ` T T _ ^ ^ T Y Y Y Y Y Y T U K S ` Y M e.e.e.e.",
"e.e.e.0.Y Z 2 < 4 C Y Y Y Y T T T ' ' T [ ' ` ' ` ` ' ' ` ` ` _ ` _ _ ^ T Y Y Y Y Y Z Z S ` Y M e.e.e.e.",
"e.e.e.&.Y A 2 < D T Y Y Y ^ ^ _ T ' @.' ' @.+.+.@.@.@.@.@.+.+.+.' ' ' ` _ _ T T Y T ' I c ` Y M e.e.e.e.",
"e.e.e.>.Y Z 2 < y J Y Y ^ ` ` ' +.@.#.#.@.$.#.#.%.%.#.%.#.#.$.#.@.#.+.+.' ' ` _ T T B Z c ` Y M e.e.e.e.",
"e.e.e.>.Y Z 2 < t Z Y / ' +.@.#.%.%.%.%.=.=.=.=.=.=.=.=.=.=.=.%.&.&.*.%.#.#.+.' ` T Y P S ` Y M e.e.e.e.",
"e.e.e.>.Y A 2 2 D ^ ^ +.%.*.=.>.,.>.,.,.,.,.0.=.,.,.0.>.0.=.5.>.,.,.,.=.,.=.&.#.#.` ' U c ` Y M e.e.e.e.",
"e.e.e.<.^ L r r s U @.*.>.,.1.1.1.1.1.1.,.,.0.1.,.0.=.5.=.q.,.0.,.1.,.1.1.,.=.0.=.+.S K H +./ S e.e.e.e."
};
