/* XPM */
static char *result[] = {
/* columns rows colors chars-per-pixel */
"52 52 17 1 ",
"  c #FFAC00",
". c #FFAD00",
"X c #FFAE00",
"o c #FFAF00",
"O c #FFB000",
"+ c #FFB100",
"@ c #FFB200",
"# c #FFB300",
"$ c #FFB400",
"% c #FFB500",
"& c #FFB600",
"* c #FFB700",
"= c #FFB800",
"- c #FFB900",
"; c #FFBA00",
": c #FFBB00",
"> c None",
/* pixels */
">>>>>>>>>>>>>>>>>>>>>>>>>>>>>>>>>>>>>>>>>>>>>>>>>>>>",
">>>>>>>>>>>>>>>>>>>>>>>>>>>>>>>>>>>>>>>>>>>>>>>>>>>>",
">>>>>>>>>>>>>>>>>>>>>>>>>>>>>>>>>>>>>>>>>>>>>>>>>>>>",
">>>>>>>>>>>>>>>>>>>>>>>>>>>>>>>>>>>>>>>>>>>>>>>>>>>>",
">>>>>>>>>>>>>>>>>>>>>>>>>>>>>>>>>>>>>>>>>>>>>>>>>>>>",
">>>>>>>>>>>>>>>>>>>>>>>>>>>>>>>>>>>>>>>>>>>>>>>>>>>>",
">>>>>>>>>>>>>>>>>>>>>>>>>>>>>>>>>>>>>>>>>>>>>>>>>>>>",
">>>>>>>>>>>>>>>>>>>>>>X%===%X>>>>>>>>>>>>>>>>>>>>>>>",
">>>>>>>>>>>>>>>>>>>>>$;:::::;%>>>>>>>>>>>>>>>>>>>>>>",
">>>>>>>>>>>>>>>>>>>>&:::::::::*>>>>>>>>>>>>>>>>>>>>>",
">>>>>>>>>>>>>>>>>>>@::::-*=::::$>>>>>>>>>>>>>>>>>>>>",
">>>>>>>>>>>>>>>>>>>-::;@>>>+;::;>>>>>>>>>>>>>>>>>>>>",
">>>>>>>>>>>>>>>>>>O:::$>>>>>@:::#>>>>>>>>>>>>>>>>>>>",
">>>>>>>>>>>>>>>>>>#::;X>>>>>>;::&>>>>>>>>>>>>>>>>>>>",
">>>>>>>>>>>>>>>>>>$::;.>>>>>>-::&>>>>>>>>>>>>>>>>>>>",
">>>>>>>>>>>>>>>>>>+:::@>>>>>X;::$>>>>>>>>>>>>>>>>>>>",
">>>>>>>>>>>>>>>>>>>;::- >>>>*:::O>>>>>>>>>>>>>>>>>>>",
">>>>>>>>>>>>>>>>>>>%:::-$+#=:::=>>>>>>>>>>>>>>>>>>>>",
">>>>>>>>>>>>>>>>>>>>=:::::::::;X>>>>>>>>>>>>>>>>>>>>",
">>>>>>>>>>>>>>>>>>>> =:::::::-o>>>>>>>>>>>>>>>>>>>>>",
">>>>>>>>>>>>>>>>>>>>>>#-:::;% >>>>>>>>>>>>>>>>>>>>>>",
">>>>>>>>>>>>>>>>>>>>>>>O:::#>>>>>>>>>>>>>>>>>>>>>>>>",
">>>>>>>>>>>>>>>>>>>>>>>o:::@>>>>>>>>>>>>>>>>>>>>>>>>",
">>>>>>>>>>>>>>>>>>>>>>>o:::@>>>>>>>>>>>>>>>>>>>>>>>>",
">>>>>>>>>>>>>>>>>>>>>>>o:::@>>>>>>>>>>>>>>>>>>>>>>>>",
">>>>>>>>>>>>>>>>>>>>>>>o:::@>>>>>>>>>>>>>>>>>>>>>>>>",
">>>>>>>>>>>>>>>>>>>>>>>O:::@>>>>>>>>>>>>>>>>>>>>>>>>",
">>>>>>>>>>>>>>>>>>>>>>>+:::@>>>>>>>>>>>>>>>>>>>>>>>>",
">>>>>>>>>>>>>>>>>>>>>>>+:::@>>>>>>>>>>>>>>>>>>>>>>>>",
">>>>>>>>>>>>>>>>>>>>>>>O:::@>>>>>>>>>>>>>>>>>>>>>>>>",
">>>>>>>>>>>>>>>>>>>>>>>O:::@>>>>>>>>>>>>>>>>>>>>>>>>",
">>>>>>>>>>>>>>>>>>>>>>>+:::+>>>>>>>>>>>>>>>>>>>>>>>>",
">>>>>>>>>>>>>>>>>>>>>>>+:::*$$# >>>>>>>>>>>>>>>>>>>>",
">>>>>>>>>>>>>>>>>>>>>>>+:::::::%>>>>>>>>>>>>>>>>>>>>",
">>>>>>>>>>>>>>>>>>>>>>>O:::::::%>>>>>>>>>>>>>>>>>>>>",
">>>>>>>>>>>>>>>>>>>>>>>O::::;;;#>>>>>>>>>>>>>>>>>>>>",
">>>>>>>>>>>>>>>>>>>>>>>O:::$>>>>>>>>>>>>>>>>>>>>>>>>",
">>>>>>>>>>>>>>>>>>>>>>>O:::+>>>>>>>>>>>>>>>>>>>>>>>>",
">>>>>>>>>>>>>>>>>>>>>>>O:::%ooX>>>>>>>>>>>>>>>>>>>>>",
">>>>>>>>>>>>>>>>>>>>>>>O:::::;:#>>>>>>>>>>>>>>>>>>>>",
">>>>>>>>>>>>>>>>>>>>>>>O:::::::%>>>>>>>>>>>>>>>>>>>>",
">>>>>>>>>>>>>>>>>>>>>>>O:::::::%>>>>>>>>>>>>>>>>>>>>",
">>>>>>>>>>>>>>>>>>>>>>>O:::&@##>>>>>>>>>>>>>>>>>>>>>",
">>>>>>>>>>>>>>>>>>>>>>>>=:; >>>>>>>>>>>>>>>>>>>>>>>>",
">>>>>>>>>>>>>>>>>>>>>>>> #X>>>>>>>>>>>>>>>>>>>>>>>>>",
">>>>>>>>>>>>>>>>>>>>>>>>>>>>>>>>>>>>>>>>>>>>>>>>>>>>",
">>>>>>>>>>>>>>>>>>>>>>>>>>>>>>>>>>>>>>>>>>>>>>>>>>>>",
">>>>>>>>>>>>>>>>>>>>>>>>>>>>>>>>>>>>>>>>>>>>>>>>>>>>",
">>>>>>>>>>>>>>>>>>>>>>>>>>>>>>>>>>>>>>>>>>>>>>>>>>>>",
">>>>>>>>>>>>>>>>>>>>>>>>>>>>>>>>>>>>>>>>>>>>>>>>>>>>",
">>>>>>>>>>>>>>>>>>>>>>>>>>>>>>>>>>>>>>>>>>>>>>>>>>>>",
">>>>>>>>>>>>>>>>>>>>>>>>>>>>>>>>>>>>>>>>>>>>>>>>>>>>"
};
