/* XPM */
static char *result[] = {
/* columns rows colors chars-per-pixel */
"52 52 22 1 ",
"  c #FFC300",
". c #FFC600",
"X c #FFC700",
"o c #FFC800",
"O c #FFC900",
"+ c #FFCA00",
"@ c #FFCB00",
"# c #FFCC00",
"$ c #FFCD00",
"% c #FFCE00",
"& c #FFCF00",
"* c #FFD000",
"= c #FFD100",
"- c #FFD200",
"; c #FFD300",
": c #FFD400",
"> c #FFD500",
", c #FFD600",
"< c gold",
"1 c #FFD800",
"2 c #FFD900",
"3 c None",
/* pixels */
"3333333333333333333333333333333333333333333333333333",
"3333333333333333333333333333333333333333333333333333",
"3333333333333333333333333333333333333333333333333333",
"3333333333333333333333333333333333333333333333333333",
"3333333333333333333333333333333333333333333333333333",
"3333333333333333333333333333333333333333333333333333",
"3333333333333333333333333333333333333333333333333333",
"3333333333333333333333333333333333333333333333333333",
"3333333333333333333333333333333333333333333333333333",
"3333333333333333333333333333333333333333333333333333",
"3333333333333333333333333333333333333333333333333333",
"3333333333333333333333333333333*:,,:&333333333333333",
"33333333333333333333333333333#<222222,+3333333333333",
"3333333333333333333333333333#1222222221+333333333333",
"333333333333333333333333333X<222<::1222,333333333333",
"333333333333333333333333333=222;333o:222%33333333333",
"333333333333333333333333333,22,33333.<22:33333333333",
"333333333333333333333333333122=333333;22,33333333333",
"333333333333333333333333333122*333333;22<33333333333",
"333333333333333333333333333<22;333333,22>33333333333",
"333333333333333333333333333;221%3333*222=33333333333",
"333333333333333333333333333*2221;$%:2221O33333333333",
"33333333333333333333333333#<22222222222*333333333333",
"3333333333333333333333333$122222222222*3333333333333",
"333333333333333333333333$1222>%>1221:@33333333333333",
"33333333333333333333333%1222:333X+@33333333333333333",
"3333333333333333333333%1222:333333333333333333333333",
"333333333333333333333&1222;3333333333333333333333333",
"33333333333333333333&2222;33333333333333333333333333",
"3333333333333333333*2222-333333333333333333333333333",
"333333333333333333*2222-3333333333333333333333333333",
"33333333333333333*2222=33333333333333333333333333333",
"3333333333333333=22222#33333333333333333333333333333",
"333333333333333=2222221#3333333333333333333333333333",
"33333333333333-2222<2221+333333333333333333333333333",
"3333333333333-2222& :222%333333333333333333333333333",
"333333333333-2222:333:2&3333333333333333333333333333",
"33333333333@222221%333+33333333333333333333333333333",
"33333333333@2222221$33333333333333333333333333333333",
"333333333333%;$-222,33333333333333333333333333333333",
"3333333333333333;21$33333333333333333333333333333333",
"33333333333333333=$333333333333333333333333333333333",
"3333333333333333333333333333333333333333333333333333",
"3333333333333333333333333333333333333333333333333333",
"3333333333333333333333333333333333333333333333333333",
"3333333333333333333333333333333333333333333333333333",
"3333333333333333333333333333333333333333333333333333",
"3333333333333333333333333333333333333333333333333333",
"3333333333333333333333333333333333333333333333333333",
"3333333333333333333333333333333333333333333333333333",
"3333333333333333333333333333333333333333333333333333",
"3333333333333333333333333333333333333333333333333333"
};
