/* XPM */
static char *result[] = {
/* columns rows colors chars-per-pixel */
"52 52 42 1 ",
"  c #F7E43B",
". c #F6E53C",
"X c #F6E63C",
"o c #F6E83D",
"O c #F6E83E",
"+ c #F6E93E",
"@ c #F6E93F",
"# c #F6EA3F",
"$ c #F6EB3F",
"% c #F6EB40",
"& c #F6EC40",
"* c #F6EC41",
"= c #F6ED41",
"- c #F6EE41",
"; c #F5EF42",
": c #F5EF43",
"> c #F6EE42",
", c #F6EF42",
"< c #F5F043",
"1 c #F5F143",
"2 c #F5F144",
"3 c #F5F244",
"4 c #F5F345",
"5 c #F5F446",
"6 c #F5F547",
"7 c #F5F647",
"8 c #F5F747",
"9 c #F5F748",
"0 c #F5F848",
"q c #F5F849",
"w c #F5F949",
"e c #F4FA4A",
"r c #F4FB4A",
"t c #F4FB4B",
"y c #F4FC4B",
"u c #F4FD4B",
"i c #F4FD4C",
"p c #F4FE4C",
"a c #F4FE4D",
"s c #F4FF4D",
"d c #F4FF4E",
"f c None",
/* pixels */
"ffffffffffffffffffffffffffffffffffffffffffffffffffff",
"ffffffffffffffffffffffffffffffffffffffffffffffffffff",
"ffffffffffffffffffffffffffffffffffffffffffffffffffff",
"ffffffffffffffffffffffffffffffffffffffffffffffffffff",
"ffffffffffffffffffffffffffffffffffffffffffffffffffff",
"ffffffffffffffffffffffffffffffffffffffffffffffffffff",
"ffffffffffffffffffffffffffffffffffffffffffffffffffff",
"ffffffffffffffffffffffffffffffffffffffffffffffffffff",
"ffffffffffffffffffffffffffffffffffffffffffffffffffff",
"ffffffffffffffffffffffffffffffffffffffffffffffffffff",
"ffffffffffffffffffffffffffffffffffffffffffffffffffff",
"ffffffffffffffffffffffffffffffffffffffffffffffffffff",
"ffffffffffffffffffffffffffffffffffffffffffffffffffff",
"ffffffffffffffffffffffffffffffffffffffffffffffffffff",
"ffffffffffffffffffffffffffffffffffffffffffffffffffff",
"ffffffffffffffffffffffffffffffffffffffffffffffffffff",
"ffffffffffffffffffffffffffffffffffffffffffffffffffff",
"ffffffffffffffffffffffffffffffffffffffffffffffffffff",
"ffffffffffffffffffffffffffffffffffffffffffffffffffff",
"fffffffffffffffffffffffffffffffffffff%,:&fffffffffff",
"fffffffffffffffffffffffffffffffffff3tssssy4fffffffff",
"ffffffffffffffffffffffffffffffffff9sssssssswffffffff",
"fffffffffffffffffffffffffffffffff7ssssppssss9fffffff",
"ffffffffffffffffffffffffffffffff=sssi4+O4isss>ffffff",
"ffffffffffO+@++#####%$#%$%%%&&&&wssp-ffff>pss0ffffff",
"fffffffff0aaaaaaaaaaaaaaaaaaaaaasss9ffffff0ssyffffff",
"ffffffff#ssssssssssssssssssssssssss4ffffff4ssuffffff",
"fffffffffrsssssssssssssssssssssssss6ffffff7ssyffffff",
"fffffffff 4sss7&;issr*==*======>tssyXffff+iss0ffffff",
"ffffffffff.ass>ffrss7fffffffffff2ssse%ff=rsss<ffffff",
"ffffffffffOass1ffrss7ffffffffffffesssartassswfffffff",
"ffffffffff+sss=ffrdd7ffffffffffff+yssssssssrofffffff",
"fffffffffff454fff>55#fffffffffffff+qassssp8Xffffffff",
"ffffffffffffffffffffffffffffffffffff%4664$ffffffffff",
"ffffffffffffffffffffffffffffffffffffffffffffffffffff",
"ffffffffffffffffffffffffffffffffffffffffffffffffffff",
"ffffffffffffffffffffffffffffffffffffffffffffffffffff",
"ffffffffffffffffffffffffffffffffffffffffffffffffffff",
"ffffffffffffffffffffffffffffffffffffffffffffffffffff",
"ffffffffffffffffffffffffffffffffffffffffffffffffffff",
"ffffffffffffffffffffffffffffffffffffffffffffffffffff",
"ffffffffffffffffffffffffffffffffffffffffffffffffffff",
"ffffffffffffffffffffffffffffffffffffffffffffffffffff",
"ffffffffffffffffffffffffffffffffffffffffffffffffffff",
"ffffffffffffffffffffffffffffffffffffffffffffffffffff",
"ffffffffffffffffffffffffffffffffffffffffffffffffffff",
"ffffffffffffffffffffffffffffffffffffffffffffffffffff",
"ffffffffffffffffffffffffffffffffffffffffffffffffffff",
"ffffffffffffffffffffffffffffffffffffffffffffffffffff",
"ffffffffffffffffffffffffffffffffffffffffffffffffffff",
"ffffffffffffffffffffffffffffffffffffffffffffffffffff",
"ffffffffffffffffffffffffffffffffffffffffffffffffffff"
};
