/* XPM */
static char *result[] = {
/* columns rows colors chars-per-pixel */
"52 52 29 1 ",
"  c #FFCE01",
". c #FFCF01",
"X c #FFD001",
"o c #FFD101",
"O c #FFD201",
"+ c #FFD301",
"@ c #FFD401",
"# c #FFD501",
"$ c gold",
"% c #FFD601",
"& c #FFD701",
"* c #FFD800",
"= c #FFD900",
"- c #FFD801",
"; c #FFD901",
": c #FFDA00",
"> c #FFDB00",
", c #FFDC00",
"< c #FFDD00",
"1 c #FFDE00",
"2 c #FFDF00",
"3 c #FFE000",
"4 c #FFE100",
"5 c #FFE200",
"6 c #FFE300",
"7 c #FFE400",
"8 c #FFE500",
"9 c #FFE600",
"0 c None",
/* pixels */
"0000000000000000000000000000000000000000000000000000",
"0000000000000000000000000000000000000000000000000000",
"0000000000000000000000000000000000000000000000000000",
"0000000000000000000000000000000000000000000000000000",
"0000000000000000000000000000000000000000000000000000",
"0000000000000000000000000000000000000000000000000000",
"0000000000000000000000000000000000000000000000000000",
"0000000000000000000000000000000000000000000000000000",
"0000000000000000000000000000000000000000000000000000",
"0000000000000000000000000000000000000000000000000000",
"0000000000000000000000000000000000000000000000000000",
"0000000000000000000000000000000000000000000000000000",
"0000000000000000000000000000000000000000000000000000",
"0000000000000o<<O00000000000000000000000000000000000",
"00000000000001994X0000000000000000000000000000000000",
"000000000000028883X000000000000000000000000000000000",
"0000000000000=88882000000000000000000000000000000000",
"000000000000#688888200000000000000000000000000000000",
"00000000000$7888888810000000000000000000000000000000",
"0000000000039884:7888<000000000000000000000000000000",
"00000000000#683+0*8888,00000000000000000000000000000",
"000000000000#>000-78888>0000000000000000000000000000",
"0000000000000000*7888888:000000000000000000000000000",
"000000000000000$788868887=00000000000000000000000000",
"000000000000000*8882.,8887-0000000000000000000000000",
"0000000000000000:7100018887&000000000000000000000000",
"00000000000000000@0000018886&00000000000000000000000",
"00000000000000000000000038886%0000000000000000000000",
"000000000000000000000000 38885%000@00000000000000000",
"0000000000000000000000000X48885,46763=00000000000000",
"00000000000000000000000000o588888888883o000000000000",
"000000000000000000000000000+688888888883000000000000",
"000000000000000000000000000048886<,17888<00000000000",
"000000000000000000000000000&7884+000%6886@0000000000",
"000000000000000000000000000,887&00000:888;0000000000",
"0000000000000000000000000001885000000#788>0000000000",
"0000000000000000000000000001885000000%788>0000000000",
"000000000000000000000000000,888-00000,888-0000000000",
"000000000000000000000000000%7885%000*788600000000000",
"0000000000000000000000000000288873148888>00000000000",
"0000000000000000000000000000o48888888882000000000000",
"00000000000000000000000000000O38888887<0000000000000",
"0000000000000000000000000000000;25541&00000000000000",
"0000000000000000000000000000000000000000000000000000",
"0000000000000000000000000000000000000000000000000000",
"0000000000000000000000000000000000000000000000000000",
"0000000000000000000000000000000000000000000000000000",
"0000000000000000000000000000000000000000000000000000",
"0000000000000000000000000000000000000000000000000000",
"0000000000000000000000000000000000000000000000000000",
"0000000000000000000000000000000000000000000000000000",
"0000000000000000000000000000000000000000000000000000"
};
