/* XPM */
static char *result[] = {
/* columns rows colors chars-per-pixel */
"52 52 13 1 ",
"  c #FFB000",
". c #FFB100",
"X c #FFB200",
"o c #FFB300",
"O c #FFB400",
"+ c #FFB500",
"@ c #FFB600",
"# c #FFB700",
"$ c #FFB800",
"% c #FFB900",
"& c #FFBA00",
"* c #FFBB00",
"= c None",
/* pixels */
"====================================================",
"====================================================",
"====================================================",
"====================================================",
"====================================================",
"====================================================",
"====================================================",
"====================================================",
"====================================================",
"========================+&%O========================",
"=======================.%**$========================",
"====================%&&&***$========================",
"===================X&******$========================",
"===================X&******$========================",
"====================+#$#&**$========================",
"========================%**$========================",
"========================%**$========================",
"====================@#$$***$========================",
"===================.&******$========================",
"===================.&******$========================",
"====================$%%%***$========================",
"======================= %**$========================",
"========================%**$========================",
"========================%**$========================",
"========================%**$========================",
"========================%**$========================",
"========================%**%========================",
"========================%**$========================",
"========================%**%========================",
"========================%**%========================",
"========================%**%========================",
"========================%**%========================",
"======================o@&**&+=======================",
"=====================+&******%O=====================",
"====================@*********&O====================",
"===================O&***&$$&***%====================",
"===================#***$o==O%***@===================",
"===================%**%=====O&**$===================",
"==================X&**#======$**%===================",
"==================X&**@======#**&===================",
"===================&**$======%**%===================",
"===================$***@====#***$===================",
"===================+****$++$****O===================",
"====================#**********#====================",
"=====================$********#=====================",
"======================+%&**&%+======================",
"========================oOOo========================",
"====================================================",
"====================================================",
"====================================================",
"====================================================",
"===================================================="
};
