/* XPM */
static char *result[] = {
/* columns rows colors chars-per-pixel */
"52 52 25 1 ",
"  c #FFCE00",
". c #FFCF00",
"X c #FFD100",
"o c #FFD200",
"O c #FFD300",
"+ c #FFD400",
"@ c #FFD500",
"# c #FFD600",
"$ c gold",
"% c #FFD800",
"& c #FFD900",
"* c #FFDA00",
"= c #FFDB00",
"- c #FFDC00",
"; c #FFDD00",
": c #FFDE00",
"> c #FFDF00",
", c #FFE000",
"< c #FFE100",
"1 c #FFE200",
"2 c #FFE300",
"3 c #FFE400",
"4 c #FFE500",
"5 c #FFE600",
"6 c None",
/* pixels */
"6666666666666666666666666666666666666666666666666666",
"6666666666666666666666666666666666666666666666666666",
"6666666666666666666666666666666666666666666666666666",
"6666666666666666666666666666666666666666666666666666",
"6666666666666666666666666666666666666666666666666666",
"6666666666666666666666666666666666666666666666666666",
"6666666666666666666666666666666666666666666666666666",
"6666666666666666666666666666666666666666666666666666",
"6666666666666666666666666666666666666666666666666666",
"6666666666666666666666666666666666666666666666666666",
"6666666666666666666666666666666666666666666666666666",
"6666666666666666666666666666666666666666666666666666",
"666666666666666666666666666666$-66666666666666666666",
"66666666666666666666666666666@24: 666666666666666666",
"66666666666666666666666666666,444>*<>o66666666666666",
"66666666666666666666666666666%3444445-66666666666666",
"666666666666666666666666666666&244444*66666666666666",
"6666666666666666666666666 >:.66*4444:666666666666666",
"6666666666666666666666666:44,Oo1444,.666666666666666",
"666666666666666666666666O244411444<X6666666666666666",
"6666666666666666666666666$24444441O66666666666666666",
"66666666666666666666666666@144442@666666666666666666",
"666666666666666666666666666>4442#6666666666666666666",
"66666666666666666666666666=4443%66666666666666666666",
"6666666666666666666666666*4443*666666666666666666666",
"666666666666666666666666%4444=6666666666666666666666",
"66666666666666666666666$3444;66666666666666666666666",
"6666666666666666666666@3444:666666666666666666666666",
"666666666666666666666O2444>6666666666666666666666666",
"666666666666666@#@66o1444,66666666666666666666666666",
"6666666666666=<3331;1444<+66666666666666666666666666",
"66666666666o<44444444441@666666666666666666666666666",
"6666666666X<44444444442%6666666666666666666666666666",
"6666666666;4442;*-1444,66666666666666666666666666666",
"666666666+2442#666O<443#6666666666666666666666666666",
"666666666%444=66666$344=6666666666666666666666666666",
"666666666=443#666666244;6666666666666666666666666666",
"666666666=443$66666O244;6666666666666666666666666666",
"666666666$444;66666&444=6666666666666666666666666666",
"66666666661443&666#1443@6666666666666666666666666666",
"6666666666=4444<:,3444:66666666666666666666666666666",
"66666666666:444444444<X66666666666666666666666666666",
"666666666666:3444444,o666666666666666666666666666666",
"6666666666666%:121>*66666666666666666666666666666666",
"6666666666666666666666666666666666666666666666666666",
"6666666666666666666666666666666666666666666666666666",
"6666666666666666666666666666666666666666666666666666",
"6666666666666666666666666666666666666666666666666666",
"6666666666666666666666666666666666666666666666666666",
"6666666666666666666666666666666666666666666666666666",
"6666666666666666666666666666666666666666666666666666",
"6666666666666666666666666666666666666666666666666666"
};
