/* XPM */
static char *result[] = {
/* columns rows colors chars-per-pixel */
"52 52 44 1 ",
"  c #F7E73B",
". c #F6E73C",
"X c #F6E83C",
"o c #F6E93D",
"O c #F6EA3D",
"+ c #F6E93E",
"@ c #F6EA3E",
"# c #F6EB3E",
"$ c #F6EB3F",
"% c #F6EC3F",
"& c #F6EB40",
"* c #F6EC40",
"= c #F6ED40",
"- c #F6ED41",
"; c #F6EE41",
": c #F6EF41",
"> c #F6EF42",
", c #F5F042",
"< c #F5F043",
"1 c #F5F143",
"2 c #F6F042",
"3 c #F5F243",
"4 c #F5F244",
"5 c #F5F344",
"6 c #F5F345",
"7 c #F5F445",
"8 c #F5F546",
"9 c #F5F646",
"0 c #F5F647",
"q c #F5F747",
"w c #F5F848",
"e c #F5F949",
"r c #F5FA49",
"t c #F4FA4A",
"y c #F4FB4A",
"u c #F4FB4B",
"i c #F4FC4B",
"p c #F4FD4B",
"a c #F4FD4C",
"s c #F4FE4C",
"d c #F4FE4D",
"f c #F4FF4D",
"g c #F4FF4E",
"h c None",
/* pixels */
"hhhhhhhhhhhhhhhhhhhhhhhhhhhhhhhhhhhhhhhhhhhhhhhhhhhh",
"hhhhhhhhhhhhhhhhhhhhhhhhhhhhhhhhhhhhhhhhhhhhhhhhhhhh",
"hhhhhhhhhhhhhhhhhhhhhhhhhhhhhhhhhhhhhhhhhhhhhhhhhhhh",
"hhhhhhhhhhhhhhhhhhhhhhhhhhhhhhhhhhhhhhhhhhhhhhhhhhhh",
"hhhhhhhhhhhhhhhhhhhhhhhhhhhhhhhhhhhhhhhhhhhhhhhhhhhh",
"hhhhhhhhhhhhhhhhhhhhhhhhhhhhhhhhhhhhhhhhhhhhhhhhhhhh",
"hhhhhhhhhhhhhhhhhhhhhhhhhhhhhhhhhhhhhhhhhhhhhhhhhhhh",
"hhhhhhhhhhhhhhhhhhhhhhhhhhhhhhhhhhhhhhhhhhhhhhhhhhhh",
"hhhhhhhhhhhhhhhhhhhhhhhhhhhhhhhhhhhhhhhhhhhhhhhhhhhh",
"hhhhhhhhhhhhhhhhhhhhhhhhhhhhhhhhhhhhhhhhhhhhhhhhhhhh",
"hhhhhhhhhhhhhhhhhhhhhhhhhhhhhhhhhhhhhhhhhhhhhhhhhhhh",
"hhhhhhhhhhhhhhhhhhhhhhhhhhhhhhhhhhhhhhhhhhhhhhhhhhhh",
"hhhhhhhhhhhhhhhhhhhhhhhhhhhhhhhhhhhhhhhhhhhhhhhhhhhh",
"hhhhhhhhhhhhhhhhhhhhhhhhhhhhhhhhhhhhhhhhhhhhhhhhhhhh",
"hhhhhhhhhhhhhhhhhhhhhhhhhhhhhhhhhhhhhhhhhhhhhhhhhhhh",
"hhhhhhhhhhhhhhhhhhhhhhhhhhhhhhhhhhhhhhhhhhhhhhhhhhhh",
"hhhhhhhhhhhhhhhhhhhhhhhhhhhhhhhhhhhhhhhhhhhhhhhhhhhh",
"hhhhhhhhhhhhhhhhhhhhhhhhhhhhhhhhhhhhhhhhhhhhhhhhhhhh",
"hhhhhhhhhhhhhhhhhhhhhhhhhhhhhhhhhhhhhhhhhhhhhhhhhhhh",
"hhhhhhhhhhhhhhhhhhhhhhhhhhhhhhhhhhhhhhhhhhhhhhhhhhhh",
"hhhhhhhhhhhhhhhhhhhhhhhhhhhhhhhhhhhhhhhhhhhhhhhhhhhh",
"hhhhhhhhh#1764%hhhhhhhhhhhhhhhhhhhhhhhhhhhhhhhhhhhhh",
"hhhhhhhX8affffsq@hhhhhhhhhhhhh%54:hh 464hhhhhhhhhhhh",
"hhhhhhOrffffffffy$hhhhhhhhhhhh0ggyhh;fff%hhhhhhhhhhh",
"hhhhhhwffffapffffrhhhhhhhhhhhh0ffyhh4ffd$hhhhhhhhhhh",
"hhhhh2fffp4oo,ufff4hhhhhhhhhhh0ffyhh2ffd+hhhhhhhhhhh",
"hhhhhwffs:hhhh%affy-*********&tffa>%8fff6Xhhhhhhhhhh",
"hhhhhyffwhhhhhh0fffffffffffffffffffffffffyohhhhhhhhh",
"hhhhoiff7hhhhhh6ffffffffffffffffffffffffff=hhhhhhhhh",
"hhhhhiffwhhhhhh0fffffffffffffffffffffffffrXhhhhhhhhh",
"hhhhhwffs:hhhh;affy1111,22>2>>>::;;;=--==.hhhhhhhhhh",
"hhhhh1fffp3oo3ifff1hhhhhhhhhhhhhhhhhhhhhhhhhhhhhhhhh",
"hhhhhheffffaaffffwhhhhhhhhhhhhhhhhhhhhhhhhhhhhhhhhhh",
"hhhhhh@tffffffffrOhhhhhhhhhhhhhhhhhhhhhhhhhhhhhhhhhh",
"hhhhhhho9affffa8Xhhhhhhhhhhhhhhhhhhhhhhhhhhhhhhhhhhh",
"hhhhhhhhh$166<@hhhhhhhhhhhhhhhhhhhhhhhhhhhhhhhhhhhhh",
"hhhhhhhhhhhhhhhhhhhhhhhhhhhhhhhhhhhhhhhhhhhhhhhhhhhh",
"hhhhhhhhhhhhhhhhhhhhhhhhhhhhhhhhhhhhhhhhhhhhhhhhhhhh",
"hhhhhhhhhhhhhhhhhhhhhhhhhhhhhhhhhhhhhhhhhhhhhhhhhhhh",
"hhhhhhhhhhhhhhhhhhhhhhhhhhhhhhhhhhhhhhhhhhhhhhhhhhhh",
"hhhhhhhhhhhhhhhhhhhhhhhhhhhhhhhhhhhhhhhhhhhhhhhhhhhh",
"hhhhhhhhhhhhhhhhhhhhhhhhhhhhhhhhhhhhhhhhhhhhhhhhhhhh",
"hhhhhhhhhhhhhhhhhhhhhhhhhhhhhhhhhhhhhhhhhhhhhhhhhhhh",
"hhhhhhhhhhhhhhhhhhhhhhhhhhhhhhhhhhhhhhhhhhhhhhhhhhhh",
"hhhhhhhhhhhhhhhhhhhhhhhhhhhhhhhhhhhhhhhhhhhhhhhhhhhh",
"hhhhhhhhhhhhhhhhhhhhhhhhhhhhhhhhhhhhhhhhhhhhhhhhhhhh",
"hhhhhhhhhhhhhhhhhhhhhhhhhhhhhhhhhhhhhhhhhhhhhhhhhhhh",
"hhhhhhhhhhhhhhhhhhhhhhhhhhhhhhhhhhhhhhhhhhhhhhhhhhhh",
"hhhhhhhhhhhhhhhhhhhhhhhhhhhhhhhhhhhhhhhhhhhhhhhhhhhh",
"hhhhhhhhhhhhhhhhhhhhhhhhhhhhhhhhhhhhhhhhhhhhhhhhhhhh",
"hhhhhhhhhhhhhhhhhhhhhhhhhhhhhhhhhhhhhhhhhhhhhhhhhhhh",
"hhhhhhhhhhhhhhhhhhhhhhhhhhhhhhhhhhhhhhhhhhhhhhhhhhhh"
};
