/* XPM */
static char *result[] = {
/* columns rows colors chars-per-pixel */
"52 52 49 1 ",
"  c #FFCF02",
". c #FFD102",
"X c #FFD202",
"o c #FFD302",
"O c #FFD203",
"+ c #FFD303",
"@ c #FFD601",
"# c #FFD402",
"$ c #FFD502",
"% c #FFD403",
"& c #FFD503",
"* c #FFD602",
"= c #FFD702",
"- c #FFD603",
"; c #FFD703",
": c #FED204",
"> c #FED504",
", c #FED405",
"< c #FED604",
"1 c #FFDA01",
"2 c #FFDB01",
"3 c #FFD802",
"4 c #FFD902",
"5 c #FFD903",
"6 c #FFDA02",
"7 c #FFDB02",
"8 c #FFDA03",
"9 c #FFDB03",
"0 c #FFDC01",
"q c #FFDD01",
"w c #FFDF00",
"e c #FFDE01",
"r c #FFDF01",
"t c #FFDC02",
"y c #FFDD02",
"u c #FFDE02",
"i c #FFDF02",
"p c #FED804",
"a c #FED904",
"s c #FFE000",
"d c #FFE100",
"f c #FFE001",
"g c #FFE101",
"h c #FFE200",
"j c #FFE300",
"k c #FFE201",
"l c #FFE400",
"z c #FFE500",
"x c None",
/* pixels */
"xxxxxxxxxxxxxxxxxxxxxxxxxxxxxxxxxxxxxxxxxxxxxxxxxxxx",
"xxxxxxxxxxxxxxxxxxxxxxxxxxxxxxxxxxxxxxxxxxxxxxxxxxxx",
"xxxxxxxxxxxxxxxxxxxxxxxxxxxxxxxxxxxxxxxxxxxxxxxxxxxx",
"xxxxxxxxxxxxxxxxxxxxxxxxxxxxxxxxxxxxxxxxxxxxxxxxxxxx",
"xxxxxxxxxxxxxxxxxxxxxxxxxxxxxxxxxxxxxxxxxxxxxxxxxxxx",
"xxxxxxxxxxxxxxxxxxxxxxxxxxxxxxxxxxxxxxxxxxxxxxxxxxxx",
"xxxxxxxxxxxxxxxxxxxxxxxxxxxxxxxxxxxxxxxxxxxxxxxxxxxx",
"xxxxxxxxxxxxxxxxxxxxxxxxxxxxxxxxxxxxxxxxxxxxxxxxxxxx",
"xxxxxxxxxxxxxxxxxxxxxxxxxxxxxxxxxxxxxxxxxxxxxxxxxxxx",
"xxxxxxxxxxxxxxxxxxxxxxxxxxxxxxxxxxxxxxxxxxxxxxxxxxxx",
"xxxxxxxxxxxxxxxxxxxxxxxxxxxxxxxxxxxxxxxxxxxxxxxxxxxx",
"xxxxxxxxxxxxxxxx-yrfi8xxxxxxxxxxxxxxxxxxxxxxxxxxxxxx",
"xxxxxxxxxxxxxxxrlzzzzzk3xxxxxxxxxxxxxxxxxxxxxxxxxxxx",
"xxxxxxxxxxxxxOhzzzzzzzzl4xxxxxxxxxxxxxxxxxxxxxxxxxxx",
"xxxxxxxxxxxxxfzzzzkglzzzl#xxxxxxxxxxxxxxxxxxxxxxxxxx",
"xxxxxxxxxxxx5zzzh=xx>rzzzrxxxxxxxxxxxxxxxxxxxxxxxxxx",
"xxxxxxxxxxxxrzzl3xxxxxgzzjxxxxxxxxxxxxxxxxxxxxxxxxxx",
"xxxxxxxxxxxxgzzgxxxxxx9zzzaxxxxxxxxxxxxxxxxxxxxxxxxx",
"xxxxxxxxxxxxkzzfxxxxxx5zzzaxxxxxxxxxxxxxxxxxxxxxxxxx",
"xxxxxxxxxxxxfzzhxxxxxxyzzl<xxxxxxxxxxxxxxxxxxxxxxxxx",
"xxxxxxxxxxxxyzzz0xxxx-jzzhxxxxxxxxxxxxxxxxxxxxxxxxxx",
"xxxxxxxxxxxx+jzzzf8ptjzzztxxxxxxxxxxxxxxxxxxxxxxxxxx",
"xxxxxxxxxxxxx6zzzzzzzzzzj:xxxxxxxxxxxxxxxxxxxxxxxxxx",
"xxxxxxxxxxxxxx2lzzzzzzzzz1xxxxxxxxxxxxxxxxxxxxxxxxxx",
"xxxxxxxxxxxxxxx=flzzljzzzl#xxxxxxxxxxxxxxxxxxxxxxxxx",
"xxxxxxxxxxxxxxxxx,pp<xuzzzh xxxxxxxxxxxxxxxxxxxxxxxx",
"xxxxxxxxxxxxxxxxxxxxxxxfzzzrxxxxxxxxxxxxxxxxxxxxxxxx",
"xxxxxxxxxxxxxxxxxxxxxxxxkzzz2xxxxxxxxxxxxxxxxxxxxxxx",
"xxxxxxxxxxxxxxxxxxxxxxxx;lzzl@xxxxxxxxxxxxxxxxxxxxxx",
"xxxxxxxxxxxxxxxxxxxxxxxxx7zzzj.xxx4=xxxxxxxxxxxxxxxx",
"xxxxxxxxxxxxxxxxxxxxxxxxxxezzzsxxqzl#xxxxxxxxxxxxxxx",
"xxxxxxxxxxxxxxxxxxxxxxxxxxxgzzzwszzzdxxxxxxxxxxxxxxx",
"xxxxxxxxxxxxxxxxxxxxxxxxxxx%jzzzzzzz2xxxxxxxxxxxxxxx",
"xxxxxxxxxxxxxxxxxxxxxxxxxxxx4zzzzzl4xxxxxxxxxxxxxxxx",
"xxxxxxxxxxxxxxxxxxxxxxxxxxxxxqzzzz3xxx4$xxxxxxxxxxxx",
"xxxxxxxxxxxxxxxxxxxxxxxxxxxxxxfzzzexxfzjXxxxxxxxxxxx",
"xxxxxxxxxxxxxxxxxxxxxxxxxxxxxxOhzzzrhzzzfxxxxxxxxxxx",
"xxxxxxxxxxxxxxxxxxxxxxxxxxxxxxx*lzzzzzzl6xxxxxxxxxxx",
"xxxxxxxxxxxxxxxxxxxxxxxxxxxxxxxx2zzzzzh$xxxxxxxxxxxx",
"xxxxxxxxxxxxxxxxxxxxxxxxxxxxxxxxxezzzl&xxxxxxxxxxxxx",
"xxxxxxxxxxxxxxxxxxxxxxxxxxxxxxxxxxdzzz5xxxxxxxxxxxxx",
"xxxxxxxxxxxxxxxxxxxxxxxxxxxxxxxxxxojzl;xxxxxxxxxxxxx",
"xxxxxxxxxxxxxxxxxxxxxxxxxxxxxxxxxxx$u3xxxxxxxxxxxxxx",
"xxxxxxxxxxxxxxxxxxxxxxxxxxxxxxxxxxxxxxxxxxxxxxxxxxxx",
"xxxxxxxxxxxxxxxxxxxxxxxxxxxxxxxxxxxxxxxxxxxxxxxxxxxx",
"xxxxxxxxxxxxxxxxxxxxxxxxxxxxxxxxxxxxxxxxxxxxxxxxxxxx",
"xxxxxxxxxxxxxxxxxxxxxxxxxxxxxxxxxxxxxxxxxxxxxxxxxxxx",
"xxxxxxxxxxxxxxxxxxxxxxxxxxxxxxxxxxxxxxxxxxxxxxxxxxxx",
"xxxxxxxxxxxxxxxxxxxxxxxxxxxxxxxxxxxxxxxxxxxxxxxxxxxx",
"xxxxxxxxxxxxxxxxxxxxxxxxxxxxxxxxxxxxxxxxxxxxxxxxxxxx",
"xxxxxxxxxxxxxxxxxxxxxxxxxxxxxxxxxxxxxxxxxxxxxxxxxxxx",
"xxxxxxxxxxxxxxxxxxxxxxxxxxxxxxxxxxxxxxxxxxxxxxxxxxxx"
};
