/* XPM */
static char *result[] = {
/* columns rows colors chars-per-pixel */
"52 52 154 2 ",
"   c #000001",
".  c #030609",
"X  c #04090E",
"o  c #060C14",
"O  c #070F18",
"+  c #07101A",
"@  c #08121D",
"#  c #1E1B1C",
"$  c #201C1D",
"%  c #0A1523",
"&  c #0B1827",
"*  c #0D1B2D",
"=  c #181E2D",
"-  c #161E2E",
";  c #0E1E31",
":  c #131E30",
">  c #2D1C24",
",  c #221E2A",
"<  c #291F2A",
"1  c #391B20",
"2  c #172435",
"3  c #1A2536",
"4  c #1F2939",
"5  c #2C2A2C",
"6  c #392F2D",
"7  c #352C2A",
"8  c #262C3A",
"9  c #3A3738",
"0  c #353233",
"q  c #79271A",
"w  c #7B2C1F",
"e  c #472427",
"r  c #4E2120",
"t  c #7C473F",
"y  c #45434B",
"u  c #5E4A44",
"i  c #5D5A5B",
"p  c #69534B",
"a  c #695650",
"s  c #785A56",
"d  c #745C58",
"f  c #646162",
"g  c #79676A",
"h  c #7A686A",
"j  c #756568",
"k  c #8D1E09",
"l  c #8E200B",
"z  c #91230E",
"x  c #922611",
"c  c #942A14",
"v  c #992914",
"b  c #9A321D",
"n  c #A5321E",
"m  c #9C3620",
"M  c #A13C26",
"N  c #A33E28",
"B  c #AB3823",
"V  c #9E4736",
"C  c #934738",
"Z  c #96483A",
"A  c #A6442E",
"S  c #A74630",
"D  c #A84731",
"F  c #AB4C36",
"G  c #BC4531",
"H  c #AE503A",
"J  c #B0523C",
"K  c #CA503C",
"L  c #80544D",
"P  c #A65341",
"I  c #B65C45",
"U  c #B95F48",
"Y  c #BC5D47",
"T  c #BD664F",
"R  c #BF6952",
"E  c #B16658",
"W  c #856F6F",
"Q  c #8E7473",
"!  c #9B7D78",
"~  c #B27064",
"^  c #D25643",
"/  c #D95B48",
"(  c #C16C55",
")  c #D46F59",
"_  c #C6735C",
"`  c #E0624F",
"'  c #E46552",
"]  c #E66E5A",
"[  c #E56955",
"{  c #E6725E",
"}  c #E77561",
"|  c #E77863",
" . c #AF8474",
".. c #B78878",
"X. c #CF8069",
"o. c #D2856D",
"O. c #C08E7D",
"+. c #D58B73",
"@. c #D98F77",
"#. c #DB937B",
"$. c #EA826D",
"%. c #EB8E78",
"&. c #EC947D",
"*. c #9C9A9A",
"=. c #B79085",
"-. c #BA9082",
";. c #A8A6A7",
":. c #C49583",
">. c #C99783",
",. c #CF9986",
"<. c #C6998A",
"1. c #E19B83",
"2. c #D0A08E",
"3. c #DFA28C",
"4. c #C8A496",
"5. c #C4A092",
"6. c #D3A190",
"7. c #DBA794",
"8. c #E4A087",
"9. c #E3A38C",
"0. c #EDA48D",
"q. c #E9A88F",
"w. c #F0A189",
"e. c #E5AA94",
"r. c #EBAC94",
"t. c #E6AF99",
"y. c #E9AF98",
"u. c #F2AD94",
"i. c #EEB097",
"p. c #EEB29A",
"a. c #F1B097",
"s. c #F2B59C",
"d. c #F3B89F",
"f. c #D6A9A0",
"g. c #DDB7AE",
"h. c #C8BCBA",
"j. c #E1B7A5",
"k. c #F4BAA1",
"l. c #F5C3AE",
"z. c #F5CCBC",
"x. c #F8CDBD",
"c. c #C6C6C6",
"v. c #D1CECD",
"b. c #F7D3C4",
"n. c #F8DACD",
"m. c #E4E4E4",
"M. c #ECE9E9",
"N. c #FCEBE4",
"B. c #FAEFEB",
"V. c #FDF1ED",
"C. c #FFF8F5",
"Z. c #FFFEFE",
"A. c #F2F4F4",
"S. c None",
/* pixels */
"S.S.S.S.S.S.S.S.S.S.S.S.S.S.S.S.S.S.S.S.S.S.S.S.S.S.S.S.S.S.S.S.S.S.S.S.S.S.S.S.S.S.S.S.S.S.S.S.S.S.S.S.",
"S.S.S.S.S.S.S.S.S.S.S.S.S.S.S.S.S.S.S.S.S.S.S.S.S.S.S.S.S.S.S.S.S.S.S.S.S.S.S.S.S.S.S.S.S.S.S.S.S.S.S.S.",
"S.S.S.S.S.S.S.S.S.S.S.S.S.S.S.S.S.S.S.S.S.S.; ; ; ; ; ; ; S.S.S.S.S.S.S.S.S.S.S.S.S.S.S.S.S.S.S.S.S.S.S.",
"S.S.S.S.S.S.S.S.S.S.S.S.S.S.S.S.S.S.S.S.; ; : ; ; ; ; ; ; ; ; ; S.S.S.S.S.S.S.S.S.S.S.S.S.S.S.S.S.S.S.S.",
"S.S.S.S.S.S.S.S.S.S.S.S.S.S.S.S.S.S.; ; ; ; ; ; ; ; * 2 ; ; ; ; ; ; S.S.S.S.S.S.S.S.S.S.S.S.S.S.S.S.S.S.",
"S.S.S.S.S.S.S.S.S.S.S.S.S.S.S.S.; ; ; ; ; ; ; ; ; ; ; ; ; ; ; ; ; ; ; S.S.S.S.S.S.S.S.S.S.S.S.S.S.S.S.S.",
"S.S.S.S.S.S.S.S.S.S.S.S.S.S.S.; ; ; ; ; ; ; ; ; ; ; ; ; ; ; ; ; ; ; ; ; ; S.S.S.S.S.S.S.S.S.S.S.S.S.S.S.",
"S.S.S.S.S.S.S.S.S.S.S.S.S.; ; ; ; ; ; ; ; ; ; ; ; ; ; ; ; ; ; ; ; ; ; ; ; ; S.S.S.S.S.S.S.S.S.S.S.S.S.S.",
"S.S.S.S.S.S.S.S.S.S.S.S.; ; ; ; * ; ; ; ; ; ; ; ; ; ; ; ; ; ; ; ; ; ; ; ; ; 2 S.S.S.S.S.S.S.S.S.S.S.S.S.",
"S.S.S.S.S.S.S.S.S.S.S.; ; ; ; ; ; ; ; ; ; ; ; ; ; ; ; ; ; ; ; ; ; ; ; ; ; ; * ; S.S.S.S.S.S.S.S.S.S.S.S.",
"S.S.S.S.S.S.S.S.S.S.; ; ; ; ; ; ; ; ; ; ; ; ; ; ; ; ; ; ; ; ; ; ; ; ; ; ; ; ; ; ; S.S.S.S.S.S.S.S.S.S.S.",
"S.S.S.S.S.S.S.S.S.; ; ; ; ; ; : ; ; ; * 2 ; ; ; ; ; ; ; ; ; * ; ; ; ; ; ; ; ; ; ; ; S.S.S.S.S.S.S.S.S.S.",
"S.S.S.S.S.S.S.S.S.; ; ; ; ; ; ; ; ; ; ; ; ; ; ; ; ; ; ; ; ; ; ; ; ; ; ; ; ; ; ; ; ; ; S.S.S.S.S.S.S.S.S.",
"S.S.S.S.S.S.S.S.; ; ; ; ; ; ; ; ; ; ; ; ; ; ; ; ; ; ; ; ; ; ; ; ; ; ; ; ; ; ; ; ; ; ; S.S.S.S.S.S.S.S.S.",
"S.S.S.S.S.S.S.S.S.; ; ; ; ; ; ; ; ; ; ; ; ; ; * * * * * * ; ; ; ; ; ; ; ; ; ; ; : ; ; S.S.S.S.S.S.S.S.S.",
"S.S.S.S.S.S.S.S.S.S.; ; ; ; ; ; ; * & % + o X X . . . . X o O @ & * ; ; ; ; ; ; ; ; S.S.S.S.S.S.S.S.S.S.",
"S.S.S.S.S.S.S.S.S.S.S.; ; ; * @ o .                               . o + & ; ; ; ; S.S.S.S.S.S.S.S.S.S.S.",
"S.S.S.S.S.S.S.S.S.S.S.* % O                                               o % * S.S.S.S.S.S.S.S.S.S.S.S.",
"S.S.S.S.S.S.S.S.S.S.S.S.                                                      S.S.S.S.S.S.S.S.S.S.S.S.S.",
"S.S.S.S.S.S.S.S.S.S.S.S.S.X . .                                       . X @ & S.S.S.S.S.S.S.S.S.S.S.S.S.",
"S.S.S.S.S.S.S.S.S.S.S.S.S.; * * * * & % % @ @ + O O O O O O O @ % % & * ; ; ; S.S.S.S.S.S.S.S.S.S.S.S.S.",
"S.S.S.S.S.S.S.S.S.S.S.S.S.; ; ; ; ; ; ; ; ; ; ; ; ; ; ; ; ; ; ; ; ; ; ; ; ; ; S.S.S.S.S.S.S.S.S.S.S.S.S.",
"S.S.S.S.S.S.S.S.S.S.S.S.S.: - ; ; ; ; ; ; ; ; ; ; ; ; ; ; ; ; ; ; ; ; ; ; - < S.S.S.S.S.S.S.S.S.S.S.S.S.",
"S.S.S.S.S.S.S.S.S.S.S.S.S.S.q s y 4 * ; ; ; ; ; ; ; ; ; ; ; ; ; ; ; 2 y d w l S.S.S.S.S.S.S.S.S.S.S.S.S.",
"S.S.S.S.S.S.S.S.S.S.S.S.S.S.b 0.y.:.L e $ , = 3 2 2 3 4 8 5 , 1 r p O.y.u.B k S.S.S.S.S.S.S.S.S.S.S.S.S.",
"S.S.S.S.S.S.S.S.S.S.a.i.k.S.N r.s.k.x.g.~ Z C ..=.=.:.,.,.P V E f.z.d.a.y.D k S.s.s.S.S.S.S.S.S.S.S.S.S.",
"S.S.S.S.S.S.S.S.S.S.e.9.i.( S r.s.j.v.A.Z.B.x.d.s.a.u.s.d.f.h.M.Z.Z.n.p.a.D A y.e.y.S.S.S.S.S.S.S.S.S.S.",
"S.S.S.S.S.S.S.S.S.S.e.9.e.e.( r.s.a 5 f m.Z.N.d.%.} ] $.a.d 5 i m.Z.V.k.y.J &.e.9.e.S.S.S.S.S.S.S.S.S.S.",
"S.S.S.S.S.S.S.S.S.S.y.9.9.s.1.u.y.u $ $ ;.Z.N.1.' ' ' [ w.a $ $ *.Z.N.k.u._ y.3.9.i.S.S.S.S.S.S.S.S.S.S.",
"S.S.S.S.S.S.S.S.S.S.S.e.9.y.s.s.k. .7 9 v.C.z.%.' ' ' [ w...6 0 c.C.z.s.s.y.e.9.y.S.S.S.S.S.S.S.S.S.S.S.",
"S.S.S.S.S.S.S.S.S.S.S.y.9.p.s.s.s.s.>.4.b.l.d.| ' ' ' ' &.s.>.5.b.l.s.s.s.s.9.e.s.S.S.S.S.S.S.S.S.S.S.S.",
"S.S.S.S.S.S.S.S.S.S.S.S.y.s.s.s.s.s.s.s.a.s.u.] ` ' ' ` | a.s.d.s.s.s.s.s.i.y.a.S.S.S.S.S.S.S.S.S.S.S.S.",
"S.S.S.S.S.S.S.S.S.S.S.S.s.s.s.s.s.s.s.s.s.a.$.' ' ' ' ' ' &.s.s.s.s.s.s.s.s.s.S.S.S.S.S.S.S.S.S.S.S.S.S.",
"S.S.S.S.S.S.S.S.S.S.S.S.s.s.s.s.s.s.s.s.y.$.' ' ' ' ' ' ' ] 0.s.s.s.s.s.s.s.S.S.S.S.S.S.S.S.S.S.S.S.S.S.",
"S.S.S.S.S.S.S.S.S.S.S.S.s.s.s.s.s.s.s.u.} ' ' ' ' ' ' ' ' ' } w.s.s.s.s.s.s.s.S.S.S.S.S.S.S.S.S.S.S.S.S.",
"S.S.S.S.S.S.S.S.S.S.S.S.s.s.s.s.s.s.s.| ' ' ' ' ' ' ' ' ' ' ' &.k.s.s.s.s.s.s.s.S.S.S.S.S.S.S.S.S.S.S.S.",
"S.S.S.S.S.S.S.S.S.S.S.s.s.s.s.s.s.k.r.) / ' ' ' ' ' ' ' ' ` K Y #.s.s.s.s.s.s.s.s.S.S.S.S.S.S.S.S.S.S.S.",
"S.S.S.S.S.S.S.S.S.S.S.s.s.s.s.s.p.o.D x v B G K ^ ^ ^ K G n z k c U 9.s.s.s.s.s.s.S.S.S.S.S.S.S.S.S.S.S.",
"S.S.S.S.S.S.S.S.S.S.S.s.s.s.s.q.U x k k k l k k z z z z k k z z l k M +.s.s.s.s.s.S.S.S.S.S.S.S.S.S.S.S.",
"S.S.S.S.S.S.S.S.S.S.s.s.s.s.9.D k k l l l l k k c H D z k k k k l l k b +.s.s.s.s.s.S.S.S.S.S.S.S.S.S.S.",
"S.S.S.S.S.S.S.S.S.S.s.s.s.r.F k k k k k k z m I #.a.y.o.F x k k l k l k b %.d.s.s.s.S.S.S.S.S.S.S.S.S.S.",
"S.S.S.S.S.S.S.S.S.S.S.s.s.( k z x b M F T o.9.p.e.6.6.7.e.#.U m l k k k k D q.s.s.s.S.S.S.S.S.S.S.S.S.S.",
"S.S.S.S.S.S.S.S.S.S.S.s.8.D I o.1.9.r.i.s.t.=.Q j j g W ! :.t.9.X.I A b x l _ s.s.s.s.S.S.S.S.S.S.S.S.S.",
"S.S.S.S.S.S.S.S.S.S.S.s.q.9.s.d.k.s.s.s.s.y.7.e.t.p.p.p.p.p.p.s.d.s.i.9.#.R I q.s.s.S.S.S.S.S.S.S.S.S.S.",
"S.S.S.S.S.S.S.S.S.S.S.S.s.s.s.s.s.s.s.s.s.s.s.s.s.s.s.s.s.s.s.s.s.s.s.s.k.s.e.y.s.s.S.S.S.S.S.S.S.S.S.S.",
"S.S.S.S.S.S.S.S.S.S.S.S.S.s.s.s.s.s.s.s.s.s.s.s.s.s.s.s.s.s.s.s.s.s.s.s.s.s.s.s.i.S.S.S.S.S.S.S.S.S.S.S.",
"S.S.S.S.S.S.S.S.S.S.S.S.S.S.a.s.s.s.s.s.s.s.s.s.s.s.s.s.s.s.s.s.s.s.s.s.s.s.s.p.S.S.S.S.S.S.S.S.S.S.S.S.",
"S.S.S.S.S.S.S.S.S.S.S.S.S.S.S.S.p.s.s.s.s.s.s.s.s.s.s.s.s.s.s.s.s.s.s.s.s.p.S.S.S.S.S.S.S.S.S.S.S.S.S.S.",
"S.S.S.S.S.S.S.S.S.S.S.S.S.S.S.S.S.S.i.s.s.s.s.s.s.s.s.s.s.s.s.s.p.s.p.S.S.S.S.S.S.S.S.S.S.S.S.S.S.S.S.S.",
"S.S.S.S.S.S.S.S.S.S.S.S.S.S.S.S.S.S.S.S.S.S.s.s.s.s.s.s.s.s.S.S.S.S.S.S.S.S.S.S.S.S.S.S.S.S.S.S.S.S.S.S.",
"S.S.S.S.S.S.S.S.S.S.S.S.S.S.S.S.S.S.S.S.S.S.S.S.S.S.S.S.S.S.S.S.S.S.S.S.S.S.S.S.S.S.S.S.S.S.S.S.S.S.S.S.",
"S.S.S.S.S.S.S.S.S.S.S.S.S.S.S.S.S.S.S.S.S.S.S.S.S.S.S.S.S.S.S.S.S.S.S.S.S.S.S.S.S.S.S.S.S.S.S.S.S.S.S.S."
};
