/* XPM */
static char *result[] = {
/* columns rows colors chars-per-pixel */
"52 52 154 2 ",
"   c #000001",
".  c #030609",
"X  c #04090E",
"o  c #060C14",
"O  c #070F18",
"+  c #07101A",
"@  c #08121D",
"#  c #1E1B1D",
"$  c #0A1523",
"%  c #0B1827",
"&  c #0D1B2D",
"*  c #181E2D",
"=  c #161E2E",
"-  c #0E1E31",
";  c #131E30",
":  c #2D1C24",
">  c #221E2A",
",  c #291F2A",
"<  c #391B20",
"1  c #172435",
"2  c #1A2536",
"3  c #1F2939",
"4  c #2C2626",
"5  c #2F2C2D",
"6  c #262223",
"7  c #262C3A",
"8  c #79271A",
"9  c #7B2C1F",
"0  c #472427",
"q  c #4E2120",
"w  c #473A36",
"e  c #7C473F",
"r  c #45434B",
"t  c #4A4849",
"y  c #504441",
"u  c #584A46",
"i  c #785A56",
"p  c #745B5A",
"a  c #756568",
"s  c #79676A",
"d  c #7A686A",
"f  c #797777",
"g  c #8D1E09",
"h  c #8E200B",
"j  c #91230E",
"k  c #922611",
"l  c #942A14",
"z  c #992914",
"x  c #9A321D",
"c  c #A5321E",
"v  c #9C3620",
"b  c #A13C26",
"n  c #A33E28",
"m  c #AB3823",
"M  c #94483A",
"N  c #9A4838",
"B  c #A6442E",
"V  c #A74630",
"C  c #A84731",
"Z  c #AB4C36",
"A  c #BC4531",
"S  c #AE503A",
"D  c #A5523F",
"F  c #B0523C",
"G  c #CA503C",
"H  c #80544D",
"J  c #B65C45",
"K  c #B95F48",
"L  c #BC5D47",
"P  c #BD664F",
"I  c #B06557",
"U  c #BF6952",
"Y  c #856F6F",
"T  c #987467",
"R  c #8E7473",
"E  c #9B7D78",
"W  c #B37165",
"Q  c #D25643",
"!  c #D95B48",
"~  c #C16C55",
"^  c #D46F59",
"/  c #C6735C",
"(  c #E0624F",
")  c #E46552",
"_  c #E56955",
"`  c #E66E5A",
"'  c #E6725E",
"]  c #E77561",
"[  c #E77863",
"{  c #BD8F7D",
"}  c #B68475",
"|  c #BF917E",
" . c #CF8069",
".. c #D2856D",
"X. c #C08E7D",
"o. c #D58B73",
"O. c #D98F77",
"+. c #DB937B",
"@. c #E9826D",
"#. c #EC8F79",
"$. c #E0947F",
"%. c #EC937D",
"&. c #B79085",
"*. c #BA9082",
"=. c #C39585",
"-. c #CF9986",
";. c #C2978A",
":. c #CA9B8A",
">. c #E19B83",
",. c #EE9E87",
"<. c #D0A08E",
"1. c #DFA28C",
"2. c #D3A190",
"3. c #DCA793",
"4. c #DFA891",
"5. c #D0AD9F",
"6. c #E4A087",
"7. c #E3A38C",
"8. c #EDA58D",
"9. c #E9A88F",
"0. c #F0A78F",
"q. c #E5AA93",
"w. c #EBAC94",
"e. c #E6AF99",
"r. c #E9AF98",
"t. c #F2AD94",
"y. c #EEB097",
"u. c #EEB29A",
"i. c #F1B097",
"p. c #F2B59C",
"a. c #F4B89F",
"s. c #D7AAA1",
"d. c #D8B4A7",
"f. c #C0BFBF",
"g. c #DCBCB0",
"h. c #F6BBA2",
"j. c #F4BFA9",
"k. c #F4C3AE",
"l. c #F4C5B2",
"z. c #F7CDBD",
"x. c #CBC6C5",
"c. c #D8D8D8",
"v. c #F6CFC0",
"b. c #F8D3C4",
"n. c #F9DED2",
"m. c #FAE1D7",
"M. c #FBE5DC",
"N. c #E3E2E2",
"B. c #F6EBE9",
"V. c #FEF2EC",
"C. c #F3F2F3",
"Z. c #FFF4F0",
"A. c #FEFEFD",
"S. c None",
/* pixels */
"S.S.S.S.S.S.S.S.S.S.S.S.S.S.S.S.S.S.S.S.S.S.S.S.S.S.S.S.S.S.S.S.S.S.S.S.S.S.S.S.S.S.S.S.S.S.S.S.S.S.S.S.",
"S.S.S.S.S.S.S.S.S.S.S.S.S.S.S.S.S.S.S.S.S.S.S.S.S.S.S.S.S.S.S.S.S.S.S.S.S.S.S.S.S.S.S.S.S.S.S.S.S.S.S.S.",
"S.S.S.S.S.S.S.S.S.S.S.S.S.S.S.S.S.S.S.S.S.S.- - - - - - - S.S.S.S.S.S.S.S.S.S.S.S.S.S.S.S.S.S.S.S.S.S.S.",
"S.S.S.S.S.S.S.S.S.S.S.S.S.S.S.S.S.S.S.S.- - ; - - - - - - - - - S.S.S.S.S.S.S.S.S.S.S.S.S.S.S.S.S.S.S.S.",
"S.S.S.S.S.S.S.S.S.S.S.S.S.S.S.S.S.S.- - - - - - - - & 1 - - - - - - S.S.S.S.S.S.S.S.S.S.S.S.S.S.S.S.S.S.",
"S.S.S.S.S.S.S.S.S.S.S.S.S.S.S.S.- - - - - - - - - - - - - - - - - - - S.S.S.S.S.S.S.S.S.S.S.S.S.S.S.S.S.",
"S.S.S.S.S.S.S.S.S.S.S.S.S.S.S.- - - - - - - - - - - - - - - - - - - - - 1 S.S.S.S.S.S.S.S.S.S.S.S.S.S.S.",
"S.S.S.S.S.S.S.S.S.S.S.S.S.- - - - - - - - - - - - - - - - - - - - - - - - - S.S.S.S.S.S.S.S.S.S.S.S.S.S.",
"S.S.S.S.S.S.S.S.S.S.S.S.- - - - & - - - - - - - - - - - - - - - - - - - - - & S.S.S.S.S.S.S.S.S.S.S.S.S.",
"S.S.S.S.S.S.S.S.S.S.S.- - - - - - - - - - - - - - - - - - - - - - - - - - - - - S.S.S.S.S.S.S.S.S.S.S.S.",
"S.S.S.S.S.S.S.S.S.S.- - - - - - - - - - - - - - - - - - - - - - - - - - - - - - - S.S.S.S.S.S.S.S.S.S.S.",
"S.S.S.S.S.S.S.S.S.- - - - - - ; - - - & 1 - - - - - - - - - & - - - - - - - - - - - S.S.S.S.S.S.S.S.S.S.",
"S.S.S.S.S.S.S.S.S.- - - - - - - - - - - - - - - - - - - - - - - - - - - - - - - - - - S.S.S.S.S.S.S.S.S.",
"S.S.S.S.S.S.S.S.- - - - - - - - - - - - - - - - - - - - - - - - - - - - - - - - - - - S.S.S.S.S.S.S.S.S.",
"S.S.S.S.S.S.S.S.S.- - - - - - - - - - - - - - & & & & & & - - - - - - - - - - - ; - - S.S.S.S.S.S.S.S.S.",
"S.S.S.S.S.S.S.S.S.S.- - - - - - - & % $ + o X X . . . . X o O @ % & - - - - - - - - S.S.S.S.S.S.S.S.S.S.",
"S.S.S.S.S.S.S.S.S.S.S.- - - & @ o .                               . o @ % - - - - S.S.S.S.S.S.S.S.S.S.S.",
"S.S.S.S.S.S.S.S.S.S.S.& $ O                                               X $ & S.S.S.S.S.S.S.S.S.S.S.S.",
"S.S.S.S.S.S.S.S.S.S.S.S.                                                      S.S.S.S.S.S.S.S.S.S.S.S.S.",
"S.S.S.S.S.S.S.S.S.S.S.S.S.X . .                                       . o + % S.S.S.S.S.S.S.S.S.S.S.S.S.",
"S.S.S.S.S.S.S.S.S.S.S.S.S.- & & & & % $ $ @ @ + O O O O O O O @ $ $ % & - - - S.S.S.S.S.S.S.S.S.S.S.S.S.",
"S.S.S.S.S.S.S.S.S.S.S.S.S.- - - - - - - - - - - - - - - - - - - - - - - - - - S.S.S.S.S.S.S.S.S.S.S.S.S.",
"S.S.S.S.S.S.S.S.S.S.S.S.S.; = - - - - - - - - - - - - - - - - - - - - - - ; 6 S.S.S.S.S.S.S.S.S.S.S.S.S.",
"S.S.S.S.S.S.S.S.S.S.S.S.S.S.8 i r 3 & - - - - - - - - - - - - - - - 2 r p 9 h S.S.S.S.S.S.S.S.S.S.S.S.S.",
"S.S.S.S.S.S.S.S.S.S.S.S.S.S.x 8.w.=.H 0 : > * 1 1 1 2 7 7 > : < q e | e.r.n h S.S.S.S.S.S.S.S.S.S.S.S.S.",
"S.S.S.S.S.S.S.S.S.S.i.u.h.S.n w.p.a.z.g.W N M } &.&.=.:.-.D N I s.z.h.p.y.B g S.p.p.S.S.S.S.S.S.S.S.S.S.",
"S.S.S.S.S.S.S.S.S.S.q.7.r.~ V w.i.v.A.A.C.f.d.a.p.i.t.p.p.l.B.A.A.c.g.p.i.B V y.q.r.S.S.S.S.S.S.S.S.S.S.",
"S.S.S.S.S.S.S.S.S.S.q.7.9.q.~ w.p.B.A.B.f 5 u 9.#.] ' @.i.m.A.C.f 5 y 1.y.F +.q.6.q.S.S.S.S.S.S.S.S.S.S.",
"S.S.S.S.S.S.S.S.S.S.r.7.7.p.>.w.p.m.A.x.6 # w >._ ) ) _ 8.n.A.x.4 # w 4.t./ r.1.7.u.S.S.S.S.S.S.S.S.S.S.",
"S.S.S.S.S.S.S.S.S.S.S.q.7.u.p.p.i.k.Z.c.t 4 T #.) ) ) ) ,.k.Z.N.t 6 T u.p.r.q.7.r.S.S.S.S.S.S.S.S.S.S.S.",
"S.S.S.S.S.S.S.S.S.S.S.r.7.u.p.p.p.p.j.b.5.X.i.[ ) ) ) ) %.p.k.b.d.{ u.p.a.i.7.q.p.S.S.S.S.S.S.S.S.S.S.S.",
"S.S.S.S.S.S.S.S.S.S.S.S.r.u.p.p.p.p.p.p.a.a.t.` ) ) ) ( [ i.p.i.a.a.p.p.p.u.r.i.S.S.S.S.S.S.S.S.S.S.S.S.",
"S.S.S.S.S.S.S.S.S.S.S.S.p.p.p.p.p.p.p.p.p.i.@.) ) ) ) ) ) %.p.p.p.p.p.p.p.p.p.S.S.S.S.S.S.S.S.S.S.S.S.S.",
"S.S.S.S.S.S.S.S.S.S.S.S.p.p.p.p.p.p.p.p.t.@.) ) ) ) ) ) ) ` 0.i.p.p.p.p.p.p.S.S.S.S.S.S.S.S.S.S.S.S.S.S.",
"S.S.S.S.S.S.S.S.S.S.S.S.p.p.p.p.p.p.p.0.[ ) ) ) ) ) ) ) ) ) ` 8.p.p.p.p.p.p.p.S.S.S.S.S.S.S.S.S.S.S.S.S.",
"S.S.S.S.S.S.S.S.S.S.S.S.p.p.p.p.p.a.i.@.) ) ) ) ) ) ) ) ) ) ) ,.h.p.p.p.p.p.p.p.S.S.S.S.S.S.S.S.S.S.S.S.",
"S.S.S.S.S.S.S.S.S.S.S.p.p.p.p.p.p.p.r.^ ! ) ) ) ) ) ) ) ) ) G L +.p.h.u.p.p.p.p.p.S.S.S.S.S.S.S.S.S.S.S.",
"S.S.S.S.S.S.S.S.S.S.S.p.p.p.p.p.u...V k z m A G Q Q Q G A c j g z K 6.p.p.p.p.p.p.S.S.S.S.S.S.S.S.S.S.S.",
"S.S.S.S.S.S.S.S.S.S.S.p.p.p.p.9.K k g h g g g h j j j h g g g h g g v O.p.p.p.p.p.S.S.S.S.S.S.S.S.S.S.S.",
"S.S.S.S.S.S.S.S.S.S.p.p.p.p.6.Z g g h h h h g g l S C j g g h h h h h x o.p.p.p.p.p.S.S.S.S.S.S.S.S.S.S.",
"S.S.S.S.S.S.S.S.S.S.p.p.h.9.Z g g g g g g j v J +.i.u...Z k g g g g g g x +.a.p.p.p.S.S.S.S.S.S.S.S.S.S.",
"S.S.S.S.S.S.S.S.S.S.S.p.p.~ g j l x v S P ..7.u.q.2.<.3.q.O.K v j g g g g V 9.p.p.p.S.S.S.S.S.S.S.S.S.S.",
"S.S.S.S.S.S.S.S.S.S.S.p.6.C J ..>.6.w.i.h.e.&.R s a d Y E ;.e.9...J B x k g / p.p.p.p.S.S.S.S.S.S.S.S.S.",
"S.S.S.S.S.S.S.S.S.S.S.p.q.6.p.h.p.h.p.p.u.e.3.q.e.u.u.u.u.e.u.p.a.i.w.8.+.~ J q.p.p.S.S.S.S.S.S.S.S.S.S.",
"S.S.S.S.S.S.S.S.S.S.S.S.a.p.p.p.p.p.p.p.p.p.p.p.p.p.p.p.p.p.p.p.p.p.p.p.h.p.9.r.p.p.S.S.S.S.S.S.S.S.S.S.",
"S.S.S.S.S.S.S.S.S.S.S.S.S.i.p.p.p.p.p.p.p.p.p.u.p.p.p.p.p.p.p.p.p.p.p.p.p.p.p.p.u.S.S.S.S.S.S.S.S.S.S.S.",
"S.S.S.S.S.S.S.S.S.S.S.S.S.S.u.p.p.p.p.p.p.p.p.p.p.p.p.p.p.p.p.p.p.p.p.p.p.p.p.u.S.S.S.S.S.S.S.S.S.S.S.S.",
"S.S.S.S.S.S.S.S.S.S.S.S.S.S.S.S.u.p.p.p.p.p.p.p.p.p.p.p.p.p.p.p.p.p.p.p.p.u.S.S.S.S.S.S.S.S.S.S.S.S.S.S.",
"S.S.S.S.S.S.S.S.S.S.S.S.S.S.S.S.S.S.u.p.u.p.p.p.p.p.p.p.p.p.p.p.u.p.u.S.S.S.S.S.S.S.S.S.S.S.S.S.S.S.S.S.",
"S.S.S.S.S.S.S.S.S.S.S.S.S.S.S.S.S.S.S.S.S.S.p.p.p.p.p.p.p.p.S.S.S.S.S.S.S.S.S.S.S.S.S.S.S.S.S.S.S.S.S.S.",
"S.S.S.S.S.S.S.S.S.S.S.S.S.S.S.S.S.S.S.S.S.S.S.S.S.S.S.S.S.S.S.S.S.S.S.S.S.S.S.S.S.S.S.S.S.S.S.S.S.S.S.S.",
"S.S.S.S.S.S.S.S.S.S.S.S.S.S.S.S.S.S.S.S.S.S.S.S.S.S.S.S.S.S.S.S.S.S.S.S.S.S.S.S.S.S.S.S.S.S.S.S.S.S.S.S."
};
