/* XPM */
static char *result[] = {
/* columns rows colors chars-per-pixel */
"52 52 48 1 ",
"  c #252525",
". c #2C2C2C",
"X c #2F2F30",
"o c #333333",
"O c #3B3B3B",
"+ c #434343",
"@ c #4C4C4C",
"# c #555555",
"$ c #59595A",
"% c #646565",
"& c #6F6F6F",
"* c #727272",
"= c #777778",
"- c #7E7F7F",
"; c #7B8287",
": c #7E8489",
"> c #838485",
", c #828689",
"< c #86898C",
"1 c #898C8D",
"2 c #8B8F91",
"3 c #8F9193",
"4 c #929496",
"5 c #959798",
"6 c #96989A",
"7 c #9A9B9C",
"8 c #9D9FA0",
"9 c #9EA0A2",
"0 c #A2A3A4",
"q c #A6A7A8",
"w c #A7A9AA",
"e c #ABACAC",
"r c #ADAFB1",
"t c #AFB0B1",
"y c #B2B3B4",
"u c #B7B7B8",
"i c #B7B8B8",
"p c #BBBCBC",
"a c #BFC0C1",
"s c #C2C3C3",
"d c #C7C7C8",
"f c #C7C8C8",
"g c #CBCBCC",
"h c #CFCFD0",
"j c #D3D4D4",
"k c #D7D7D8",
"l c #DADADA",
"z c None",
/* pixels */
"zzzzzzzzzzzzzzzzzzzzzzzzzzzzzzzzzzzzzzzzzzzzzzzzzzzz",
"zzzzzzzzzzzzzzzzzzzzzzzzzzzzzzzzzzzzzzzzzzzzzzzzzzzz",
"zzzzzzzzzzzzzzzzzzzzzzzzzzzzzzzzzzzzzzzzzzzzzzzzzzzz",
"zzzzzzzzzzzzzzzzzzzzzzzzzzzzzzzzzzzzzzzzzzzzzzzzzzzz",
"zzzzzzzzzzzzzzzzzzzzz@+@+++++++zzzzzzzzzzzzzzzzzzzzz",
"zzzzzzzzzzzzzzzzzzz+++++++OOOOOOOzzzzzzzzzzzzzzzzzzz",
"zzzzzzzzzzzzzzzzz@++++OOOOOOOOOOOOOzzzzzzzzzzzzzzzzz",
"zzzzzzzzzzzzzzzz+++OOOOOOOoOoOoOOOOOzzzzzzzzzzzzzzzz",
"zzzzzzzzzzzzzzz@+++OOOOooooOoooOoOooOzzzzzzzzzzzzzzz",
"zzzzzzzzzzzzzz+++OOOOoOOOooooooooooOoOzzzzzzzzzzzzzz",
"zzzzzzzzzzzzz@++OOOOOoooooooXoooooooooOzzzzzzzzzzzzz",
"zzzzzzzzzzzz++++O+oOoOooooo.ooo.Xooooooozzzzzzzzzzzz",
"zzzzzzzzzzz@+++OOOoOoOoooXoXooXXXXXXooooozzzzzzzzzzz",
"zzzzzzzzzzz+++OOOOOooooooooXX.XXXXXXo.ooozzzzzzzzzzz",
"zzzzzzzzzz+++++OOoOooOooXooXoXXXX.X..Xo.oozzzzzzzzzz",
"zzzzzzzzzz@++OOOOoOoooooXooXXXXXX...o.ooooozzzzzzzzz",
"zzzzzzzzz+++OOOoOoOoooooooo.o..o....X..oooozzzzzzzzz",
"zzzzzzzz@+++OOOOoOoooooo.Xo.o..X.........Xozzzzzzzzz",
"zzzzzzzz+++O+OOOoOooOooooooXo............o.ozzzzzzzz",
"zzzzzzzz+++OOooOoooOooOo.oo.oX.o...........ozzzzzzzz",
"zzzzzzz@+++OOoOoOoooooOoXoo.............o.oXozzzzzzz",
"zzzzzzz++++OOooOoOooooooXoX.o. ..   ......XXozzzzzzz",
"zzzzzzz++OOOOooooOoooooo.oX X. .. .  .. .....ozzzzzz",
"zzzzzzz++++OOoooooooooooXoX... .  ..   ......ozzzzzz",
"zzzzzzz++O+OOooOooooooooXo...  .     .   ....Xzzzzzz",
"zzzzzzz++OOOOooooooooooo.X..X. .  .     ....Xozzzzzz",
"zzzzzzz++OOOOoooOooooooo.o..X.         .  ...ozzzzzz",
"zzzzzzz+OOOOOXoooooooooX.X. ..          .....Xzzzzzz",
"zzzzzzzz@OOOooooXoXoo.X..X...  .          ...Xzzzzzz",
"zzzzzzzze=+oOoooXo.X.... X  .  .         ...XXzzzzzz",
"zzzzzzzzzf7#oooo.o.X..X.... .             ..XXzzzzzz",
"zzzzzzzzzshs-+Xo.o..X... .  .          . . .Xzzzzzzz",
"zzzzzzzzzidhky%oXX..X... . .             .O$zzzzzzzz",
"zzzzzzzzzyafjkj7@X..X .. .              +%>1zzzzzzzz",
"zzzzzzzzzzusfjjlf>+ ......           o#-7743zzzzzzzz",
"zzzzzzzzzzrisfhjkls-+  . .        .+&5qq974zzzzzzzzz",
"zzzzzzzzzzzrpsfghjjjp>@.       o+&4tyee0753zzzzzzzzz",
"zzzzzzzzzzzqtiasdghhhhs7%+O+#%10yiiyee0874zzzzzzzzzz",
"zzzzzzzzzzzzqtiasdfgffgfdytyipppiyyte0874>zzzzzzzzzz",
"zzzzzzzzzzzz69tyiassssssdssppppiyteq08741zzzzzzzzzzz",
"zzzzzzzzzzzzz69etuiiaapaapappuytrrq08751>zzzzzzzzzzz",
"zzzzzzzzzzzzzz59qeyyyuiuuuuyytreqq98742<zzzzzzzzzzzz",
"zzzzzzzzzzzzzzz470qeettttttrrwwq088532<zzzzzzzzzzzzz",
"zzzzzzzzzzzzzzzz3570qqqewewqqqq98663<:zzzzzzzzzzzzzz",
"zzzzzzzzzzzzzzzzz145789000000886642<>zzzzzzzzzzzzzzz",
"zzzzzzzzzzzzzzzzzz><3457777766532<:zzzzzzzzzzzzzzzzz",
"zzzzzzzzzzzzzzzzzzzz->1133333322<:zzzzzzzzzzzzzzzzzz",
"zzzzzzzzzzzzzzzzzzzzzzz><1<1<<,zzzzzzzzzzzzzzzzzzzzz",
"zzzzzzzzzzzzzzzzzzzzzzzzzzzzzzzzzzzzzzzzzzzzzzzzzzzz",
"zzzzzzzzzzzzzzzzzzzzzzzzzzzzzzzzzzzzzzzzzzzzzzzzzzzz",
"zzzzzzzzzzzzzzzzzzzzzzzzzzzzzzzzzzzzzzzzzzzzzzzzzzzz",
"zzzzzzzzzzzzzzzzzzzzzzzzzzzzzzzzzzzzzzzzzzzzzzzzzzzz"
};
