/* XPM */
static char *result[] = {
/* columns rows colors chars-per-pixel */
"52 52 53 1 ",
"  c #252525",
". c #2C2C2C",
"X c #2F2F30",
"o c #333333",
"O c #3B3B3B",
"+ c #434343",
"@ c #4B4B4C",
"# c gray33",
"$ c #5B5B5B",
"% c #646464",
"& c gray42",
"* c #717171",
"= c #777778",
"- c #7E7F7F",
"; c #7C8287",
": c #7E8488",
"> c #848485",
", c #828689",
"< c #868A8D",
"1 c #8A8C8D",
"2 c #8B8F91",
"3 c #8E9193",
"4 c #929495",
"5 c #959798",
"6 c #96999B",
"7 c #9A9B9C",
"8 c #9D9FA0",
"9 c #9EA0A2",
"0 c #A2A3A4",
"q c #A6A7A8",
"w c #A7A9AA",
"e c #ABACAC",
"r c #ADAFB1",
"t c #AFB0B1",
"y c #B3B3B4",
"u c #B7B7B8",
"i c #B7B8B8",
"p c #BBBCBC",
"a c #BDBFC0",
"s c #BFC0C1",
"d c #C3C3C3",
"f c #C7C7C8",
"g c #C7C8C8",
"h c #CBCCCC",
"j c #CFCFD0",
"k c #D3D4D4",
"l c #D7D7D8",
"z c #DBDBDB",
"x c gray90",
"c c #ECECEC",
"v c gray96",
"b c #FEFEFE",
"n c None",
/* pixels */
"nnnnnnnnnnnnnnnnnnnnnnnnnnnnnnnnnnnnnnnnnnnnnnnnnnnn",
"nnnnnnnnnnnnnnnnnnnnnnnnnnnnnnnnnnnnnnnnnnnnnnnnnnnn",
"nnnnnnnnnnnnnnnnnnnnnnnnnnnnnnnnnnnnnnnnnnnnnnnnnnnn",
"nnnnnnnnnnnnnnnnnnnnnnnnnnnnnnnnnnnnnnnnnnnnnnnnnnnn",
"nnnnnnnnnnnnnnnnnnnnn@++++++++Onnnnnnnnnnnnnnnnnnnnn",
"nnnnnnnnnnnnnnnnnnn++++++OOOO++OOnnnnnnnnnnnnnnnnnnn",
"nnnnnnnnnnnnnnnnn+++++OOOOOOOOOOOOOnnnnnnnnnnnnnnnnn",
"nnnnnnnnnnnnnnnn@+++OOOOOOOOoOoooOOOnnnnnnnnnnnnnnnn",
"nnnnnnnnnnnnnnn++++OOOOooOoooOoooOOOonnnnnnnnnnnnnnn",
"nnnnnnnnnnnnnn+++OOOOoOOoooooooooooooOnnnnnnnnnnnnnn",
"nnnnnnnnnnnnn@++OOOOOoooooooooooXoooooOnnnnnnnnnnnnn",
"nnnnnnnnnnnn++++O+oOoOooooooXoXooXoooooonnnnnnnnnnnn",
"nnnnnnnnnnn@+++OOOoOoooooXoXoXXXo.ooooooOnnnnnnnnnnn",
"nnnnnnnnnnn+++OOOOOooOoooooXXXXXX.X.o.ooonnnnnnnnnnn",
"nnnnnnnnnn+++++OOoOooOooXooXoXXX.oo...oooonnnnnnnnnn",
"nnnnnnnnnn@++OOOOoOoooooXooXoXXX....o..oooonnnnnnnnn",
"nnnnnnnnn+++OOOoOoOoooooooo.oX.X.....X.XXoonnnnnnnnn",
"nnnnnnnn+++++OOOOoooooooXoX.XX.X.......XXXonnnnnnnnn",
"nnnnnnnn+++OOOOOoOooOoooXooXXX.X.... ....XXonnnnnnnn",
"nnnnnnnn++++OooOoOoOooOoXoX.oXXX.........XXXnnnnnnnn",
"nnnnnnn++++OOoOOoOooooOo.oo.X.... .....XXXXXnnnnnnnn",
"nnnnnnn++++OO+oooooooooooo.........  .. X.XXonnnnnnn",
"nnnnnnn+++OO@fe$oooooooo.o.... .  ...  ....XXonnnnnn",
"nnnnnnn++O+O+jbce%oooooo.oX... ..   .    ...XXnnnnnn",
"nnnnnnn+O+OOo1bbbci*+.oooo.... ..   .+&>o....Xnnnnnn",
"nnnnnnn+++OOO@kbbbbvh>@o.o....  .O$>ixbx+ ..Xonnnnnn",
"nnnnnnn++OOOOX&xbbbbvbto.o. .X$3pzvbbbb0. ...onnnnnn",
"nnnnnnn+OOOOOXo$ycvvxe$......Ogvbbbbbbz@ ....Xnnnnnn",
"nnnnnnnn@OOOOooXo#%%@o..... ..@ivbbbbz$ . ...Xnnnnnn",
"nnnnnnnne=+oOooo.X...........  o%7iy,+   ...XXnnnnnn",
"nnnnnnnnnd7#ooXoXo.X.... .  .              .XXnnnnnn",
"nnnnnnnnnsjd-+Xo.X......... .          . ...Xnnnnnnn",
"nnnnnnnnnifjly%o.XX..... .  .            .O$nnnnnnnn",
"nnnnnnnnnysgklj7#X..X X  X              +%>4nnnnnnnn",
"nnnnnnnnnnudgklzg>+..... ..          o#-7741nnnnnnnn",
"nnnnnnnnnnridgjkkld-+  . .        .+*4ee074nnnnnnnnn",
"nnnnnnnnnnntpdghjklkp>@X .     o+*5eiee9753nnnnnnnnn",
"nnnnnnnnnnnqtisdghjhjjs7%+O+@&10ypiyee0753nnnnnnnnnn",
"nnnnnnnnnnnnqtisddgghfggdiyypsppiyyee0974>nnnnnnnnnn",
"nnnnnnnnnnnn69tyisdddddddddppppiyteq09741nnnnnnnnnnn",
"nnnnnnnnnnnnn69etuippassapapiuutrrw98752<nnnnnnnnnnn",
"nnnnnnnnnnnnnn59qeyyuuuuuuuyytreww98742,nnnnnnnnnnnn",
"nnnnnnnnnnnnnnn470qeetttytrrreww988542,nnnnnnnnnnnnn",
"nnnnnnnnnnnnnnnn35700wqeeewwqq098753<:nnnnnnnnnnnnnn",
"nnnnnnnnnnnnnnnnn146770000099886552<,nnnnnnnnnnnnnnn",
"nnnnnnnnnnnnnnnnnn>,3457677766532<:nnnnnnnnnnnnnnnnn",
"nnnnnnnnnnnnnnnnnnnn>>1144433322<:nnnnnnnnnnnnnnnnnn",
"nnnnnnnnnnnnnnnnnnnnnnn>,<<<<<<nnnnnnnnnnnnnnnnnnnnn",
"nnnnnnnnnnnnnnnnnnnnnnnnnnnnnnnnnnnnnnnnnnnnnnnnnnnn",
"nnnnnnnnnnnnnnnnnnnnnnnnnnnnnnnnnnnnnnnnnnnnnnnnnnnn",
"nnnnnnnnnnnnnnnnnnnnnnnnnnnnnnnnnnnnnnnnnnnnnnnnnnnn",
"nnnnnnnnnnnnnnnnnnnnnnnnnnnnnnnnnnnnnnnnnnnnnnnnnnnn"
};
