/* XPM */
static char *result[] = {
/* columns rows colors chars-per-pixel */
"52 52 115 2 ",
"   c #060606",
".  c #080707",
"X  c #080807",
"o  c #060708",
"O  c #07090A",
"+  c #0B0B0B",
"@  c #100F0F",
"#  c #0F100F",
"$  c #10100F",
"%  c #0D0E12",
"&  c #0E1012",
"*  c #111214",
"=  c #13151A",
"-  c #16181E",
";  c #19191D",
":  c #161920",
">  c #1B1C23",
",  c #1E1F28",
"<  c #1E2027",
"1  c #1F2129",
"2  c #232325",
"3  c #282726",
"4  c #282827",
"5  c #24242B",
"6  c #29272E",
"7  c #26282E",
"8  c #2D2C2C",
"9  c #302F2E",
"0  c #31312F",
"q  c #232631",
"w  c #272A33",
"e  c #2B2C35",
"r  c #272B39",
"t  c #2B2E3A",
"y  c #312F30",
"u  c #2D3037",
"i  c #2E313C",
"p  c #343332",
"a  c #383736",
"s  c #393836",
"d  c #32333D",
"f  c #373839",
"g  c #3C3C3B",
"h  c #403F3D",
"j  c #41413F",
"k  c #2F3341",
"l  c #333642",
"z  c #363945",
"x  c #393B44",
"c  c #363A49",
"v  c #3A3D4B",
"b  c #3C3F51",
"n  c #403F40",
"m  c #3E4042",
"M  c #3D414F",
"N  c #3D4151",
"B  c #444443",
"V  c #484747",
"C  c #494947",
"Z  c #44454C",
"A  c #47494E",
"S  c #4B4B4D",
"D  c #424555",
"F  c #444857",
"G  c #4C4C53",
"H  c #434759",
"J  c #45495A",
"K  c #4A4E5C",
"L  c #514F57",
"P  c #514E5C",
"I  c #4F5050",
"U  c #4D515E",
"Y  c #525255",
"T  c #5A5856",
"R  c #54545B",
"E  c #595759",
"W  c #575959",
"Q  c #5A595E",
"!  c #4D5161",
"~  c #535562",
"^  c #565A64",
"/  c #5B5C64",
"(  c #5B5E69",
")  c #605F66",
"_  c #5F6267",
"`  c #5E616B",
"'  c #616165",
"]  c #696766",
"[  c #696967",
"{  c #62646C",
"}  c #66696F",
"|  c #6D6D6B",
" . c #706F6D",
".. c #6F706D",
"X. c #72716E",
"o. c #666771",
"O. c #676971",
"+. c #6B6D73",
"@. c #706E73",
"#. c #6E7176",
"$. c #6F7379",
"%. c #747472",
"&. c #787776",
"*. c #777876",
"=. c #797876",
"-. c #74767B",
";. c #77787C",
":. c #7C7C7D",
">. c #81817F",
",. c #7D7E81",
"<. c #7E8082",
"1. c #838384",
"2. c #868688",
"3. c #878889",
"4. c #89898A",
/* pixels */
"| | | | | X.E G %.X.X.X.X. ...X.X.%.%.T E =.%.%.&.%.*.*.*.%.*.:.I Q :.*.%.X...%...#.X.X.*.A Y X.| ..| @.",
"` o.} O.} +.{ l / { { { } o.+.#.$.#.-._ l { { { { { } +.+.#.+.;.U l ] _ { } } +.+.#.%.+.;.R c / / / ( ( ",
"N F F H H U Q t z b b b N N J H H J K E t v b v M b N F H J J ^ G r v v M b N N H H J J ~ G t N N b b b ",
"H F F J H K R i v D D D F N J J J J K E t b F D F D H J J J H ~ G r F D N F N H J J J H ~ A t N N F N F ",
"F H J J H ! U u D F D F F H J J K J ! L t F F D F F J J J J J ~ Z t F F D F F F J J J J ~ A i F N N F N ",
"- - - ; - < c 5 ; < ; > > , < < 1 1 q x < : > > : > , > 1 5 , t z > : , : ; , , < 1 < < e c - = = = = ; ",
"2 0 8 9 8 4 f u 3 3 3 3 3 2 8 6 8 8 8 B a 9 9 0 p 8 8 a p y 9 p h p 4 8 8 8 3 3 0 0 u 8 0 h p 8 u 0 p 3 ",
"M %.1.1.1.1.>.1.2.2.2.2.>.S ;.1.1.1.1.1.1.4.4.2.4.:.G :.<.1.1.1.1.1.3.3.1.4.@.Z ;.:.:.:.=.:.1.1.1.1.2. .",
"i l F N D D F U U U ~ R { x z D D F F J U K U ! ~ { i c D D D D J U U ! ! ^ ( e b b H n n F K J U U R Q ",
"d c N F D D D F J J J J ) x c D N N D F J K J J K ' l c D D D D F H J H J U Q i b H H H J F F J J J U Q ",
"d l F N D D F J J H J H / d c F D D F F J J J F J / d v D D D D F F J H H J W t b n n H H H H J J J U T ",
"d l c z c c c c v M N N R l l c z z c c v c N N D E i l c z z x c v v N N D R e k c d k l z z z z z m U ",
", O O O O O O & + + + O w 5   O O O O % % O % + + i 2 O + + + + + * + + + + e = o       . . + X O   + w ",
"[ [ [ } | | Y G #.| | | [ | |  .| | %.T L %. .@. . .%. .%.@.%.=.A E =.%.@. .] | +.+.| @.%.V G | [ | [ ] ",
"` o.{ o.o.+.{ k ^ { ` { { o.+.+.+.+.-.) z ( ` ) { { o.+.+.+.+.-.R l ( ` { { { +.+.+.+.+.-.R c ^ ^ ^ ^ ( ",
"N H H J H U Q t z N b v b D H H J J K T t b b b b b F H H H F ^ G r v b b b b D H H J H ^ G t v N b N N ",
"F F F J H U R t x D D D D D H J J J ! E t N D D D D F F H H J ~ A e D D n H D D J J J G ~ A t D H n D D ",
"F F J J H ! Y t n D D F D H J J J J ! L t F D D D D J J J K J ~ D t D F N H D J J J J J ~ Z t F N D D D ",
"= * = = = : x q > > ; : > > > > , > 5 c > : ; - ; - > , , , : e x > : : > : : > > > , : t z = * = * * * ",
"3 s p p p p g d 9 e 9 8 9 3 p i p p p B g a s s s a y g a s s s Z s p p y a e 8 g s s 0 p n s s s d g 9 ",
"v #.1.<.1.,.<.1.2.2.2.2.1.L -.1.<.1.1.:.1.4.4.3.4.,.D ,.,.,.1.<.1.1.1.2.1.4.@.Z &.;.,.;.;.;.1.,.1.,.2.@.",
"d l F N n D J K K K ~ K ) l z n N D D F U J U U ~ ) d z F N Z D F K U K ! ~ / e v b b b n H K H K K ~ / ",
"k z D N D D F J J J J J ) x c D D D D H J J J J K ( l c D D N H F H J J J P Q i b H H H H H J J K J K Q ",
"i l F D D D D H J J J J Q x c D M D D D F J J J J / d v F b H D F J H J J K R t n H D b H H J J J J K E ",
"i i x z l c z z z c x v ~ l d x l z z z x c c v v R d i l l l z z c x v c D Y e i i u i i i l l z l v Y ",
", + . O O . O * @ @ @ . 6 5 X X O O X + * + @ + @ d 5 + + @ % + + & # + + + e ;   X X X O + O X . . + 6 ",
" .|  .|  .X.E G &.@.$.$. . .%.%.X.%.*.E T =.&.&.%.%.&.=.=.&.&.>.L T :.-.=.%.X.%.%.%.&.%.=.S L  . .@. . .",
"/ o.) o.{ o.{ l ~ ( ( ` ) o.+.o.+.+.%.' l ^ / / ) ) { o.o.+.o.%.L l / ( ` ` ' { o.o.+.} -.R z ^ ~ ^ ^ ^ ",
"F H J H F K Q t c n b H b N H H F J U E t v b b b b H H H J H ^ G r n b b b b N J F J J ^ G r b b b b b ",
"F F H H F K R i v D H n H F H J F J K E t b D D D D F J J J H ~ A r H H D D F F F F H F ~ A t D D D D D ",
"D F J J H U U t b D D H D F H J K J ! Y t D H N D F H J J J H ~ Z r D D D D F H J J K H ~ Z t D D v D D ",
"* % * * * = l 5 = = = = ; : : : : : > x > = = = = ; : : : : : 5 l > = = = = : : : : : - q z * % * @ * * ",
"6 h g g g a h g p p p p p 3 a a s s g V B s g g j s d B h h h g C g f f a g y y n n g s g V h g x j j p ",
"v @.,.:.<.<.,.1.2.2.2.2.<.G -.,.,.<.<.<.1.2.2.2.4.:.F &.,.<.<.,.<.<.1.1.1.4.@.n -.-.-.-.;.;.,.,.1.,.1. .",
"l k D N M N F J J K U K { l l N b N v F K K K ! ! ) i z M M N N F J U K K ~ / t c b b b N D J F K J R / ",
"i l F D D D F J J J K J ) x c F D D D F J J J J K ) l v D D D D F J J J K K / y b D D H F F J J J J P E ",
"i z F D N D D F J J J J / f v H D D D F H J J J K / d v D D D D F F J J J J R e N D N F D F H J J J K R ",
"i t z d d l d z z z c x P d t z d l l l z z c x v P d t d d l d l z z x x M L e e t e p u i i k d d v L ",
"5 + . + O + + * @ @ @ X 5 5 . + + + + + * @ + * @ i 2 @ @ @ @ $ # * * $ + + e ; X O + + + + + O + + @ e ",
" . .%.@.X.%.Q G &.%.&.%.%.%.&.&.=.=.>.Q E :.&.&.&.&.&.:.:.:.:.>.Y E >.:.:.=.X.&.=.=.=.=.:.S Y %. .X.X.+.",
"^ ( ( ` ( o.{ k P ^ ^ ( ( ( o.{ o.o.+./ d ^ ^ ^ ^ ( ` { { o.{ @.K k ^ ~ ^ ( ` ` { { o.{ %.R k ~ U R ~ ~ ",
"N H J H J K E i v b N v b D H H J H K E t v N b N N H H H J H ~ G t v N b N N N J J J J ~ G t N N M N N ",
"H H H J H U R t v D D D D F J J J F K Y t Z N D N H H H J J H ~ A t F D N H F F F F J F ~ A r F D D N F ",
"N H H J H K U t b F N D D F H H K J ! L t D F N N F H J J J J ! Z t N F N N N F J J J J ~ Z t N N N N N ",
"= & & % % = d 1 * = = * * - = = = = : g : * * * * = - = : : = q d : = = = = = = = - = = 1 d & % O % % & ",
"8 V B B B g V B g g g g s 8 B g j B B S A B V V S n s S Z n n V I B x g g B f p C B B B B S V B V V V s ",
"v O.:.;.,.,.:.1.1.2.1.2.>.G #.:.,.,.,.,.1.2.2.1.2.;.D *.,.,.,.,.>.1.1.1.1.3.%.c #.$.-.$.-.-.,.,.,.:.1.+.",
"d k N N N N N J J J K K ' z l N v N v F J J K K K ' i z b b H n F J J K K U / r c b b b b N F F K J P / ",
"d z D D D D F H J J J J ) x z H H D D D J J J K K ) d v D n H H F J J J J U / e N D D D D D F J J J R E ",
"i z D D D D F H J J J K Q d v F H n D J J J J J K / d v H H n D F H J J J R R t N D D D D F F J K J K E ",
"i e d d d d d d l d x l Y x e d k i k l l l z z c P d t l k i d d l l l f c G e w e e e e e t i i t z G ",
"2 O X + O O . + + + + X 5 5   . O O . . . + + . . y 2 . + + + + O + + + + X 6 ;       O   X O X X X O 6 "
};
